<?xml version="1.0" encoding="utf-8" standalone="no"?>
<!DOCTYPE svg PUBLIC "-//W3C//DTD SVG 1.1//EN"
  "http://www.w3.org/Graphics/SVG/1.1/DTD/svg11.dtd">
<svg xmlns:xlink="http://www.w3.org/1999/xlink" width="1288.8pt" height="586.238281pt" viewBox="0 0 1288.8 586.238281" xmlns="http://www.w3.org/2000/svg" version="1.1">
 <metadata>
  <rdf:RDF xmlns:dc="http://purl.org/dc/elements/1.1/" xmlns:cc="http://creativecommons.org/ns#" xmlns:rdf="http://www.w3.org/1999/02/22-rdf-syntax-ns#">
   <cc:Work>
    <dc:type rdf:resource="http://purl.org/dc/dcmitype/StillImage"/>
    <dc:date>2026-09-30T19:28:42.741830</dc:date>
    <dc:format>image/svg+xml</dc:format>
    <dc:creator>
     <cc:Agent>
      <dc:title>Matplotlib v3.10.0, https://matplotlib.org/</dc:title>
     </cc:Agent>
    </dc:creator>
   </cc:Work>
  </rdf:RDF>
 </metadata>
 <defs>
  <style type="text/css">*{stroke-linejoin: round; stroke-linecap: butt}</style>
 </defs>
 <g id="figure_1">
  <g id="patch_1">
   <path d="M 0 586.238281 
L 1288.8 586.238281 
L 1288.8 0 
L 0 0 
z
" style="fill: #ffffff"/>
  </g>
  <g id="axes_1">
   <g id="table_1">
    <g id="patch_2">
     <path d="M 7.2 106.918281 
L 309.507391 106.918281 
L 309.507391 58.518281 
L 7.2 58.518281 
z
" style="fill: #f0efec; stroke: #e1e0d9; stroke-linejoin: miter"/>
    </g>
    <g id="text_1">
     <!-- class -->
     <g transform="translate(37.430739 88.788906) scale(0.22 -0.22)">
      <defs>
       <path id="DejaVuSans-Bold-63" d="M 3366 3391 
L 3366 2478 
Q 3138 2634 2908 2709 
Q 2678 2784 2431 2784 
Q 1963 2784 1702 2511 
Q 1441 2238 1441 1747 
Q 1441 1256 1702 982 
Q 1963 709 2431 709 
Q 2694 709 2930 787 
Q 3166 866 3366 1019 
L 3366 103 
Q 3103 6 2833 -42 
Q 2563 -91 2291 -91 
Q 1344 -91 809 395 
Q 275 881 275 1747 
Q 275 2613 809 3098 
Q 1344 3584 2291 3584 
Q 2566 3584 2833 3536 
Q 3100 3488 3366 3391 
z
" transform="scale(0.015625)"/>
       <path id="DejaVuSans-Bold-6c" d="M 538 4863 
L 1656 4863 
L 1656 0 
L 538 0 
L 538 4863 
z
" transform="scale(0.015625)"/>
       <path id="DejaVuSans-Bold-61" d="M 2106 1575 
Q 1756 1575 1579 1456 
Q 1403 1338 1403 1106 
Q 1403 894 1545 773 
Q 1688 653 1941 653 
Q 2256 653 2472 879 
Q 2688 1106 2688 1447 
L 2688 1575 
L 2106 1575 
z
M 3816 1997 
L 3816 0 
L 2688 0 
L 2688 519 
Q 2463 200 2181 54 
Q 1900 -91 1497 -91 
Q 953 -91 614 226 
Q 275 544 275 1050 
Q 275 1666 698 1953 
Q 1122 2241 2028 2241 
L 2688 2241 
L 2688 2328 
Q 2688 2594 2478 2717 
Q 2269 2841 1825 2841 
Q 1466 2841 1156 2769 
Q 847 2697 581 2553 
L 581 3406 
Q 941 3494 1303 3539 
Q 1666 3584 2028 3584 
Q 2975 3584 3395 3211 
Q 3816 2838 3816 1997 
z
" transform="scale(0.015625)"/>
       <path id="DejaVuSans-Bold-73" d="M 3272 3391 
L 3272 2541 
Q 2913 2691 2578 2766 
Q 2244 2841 1947 2841 
Q 1628 2841 1473 2761 
Q 1319 2681 1319 2516 
Q 1319 2381 1436 2309 
Q 1553 2238 1856 2203 
L 2053 2175 
Q 2913 2066 3209 1816 
Q 3506 1566 3506 1031 
Q 3506 472 3093 190 
Q 2681 -91 1863 -91 
Q 1516 -91 1145 -36 
Q 775 19 384 128 
L 384 978 
Q 719 816 1070 734 
Q 1422 653 1784 653 
Q 2113 653 2278 743 
Q 2444 834 2444 1013 
Q 2444 1163 2330 1236 
Q 2216 1309 1875 1350 
L 1678 1375 
Q 931 1469 631 1722 
Q 331 1975 331 2491 
Q 331 3047 712 3315 
Q 1094 3584 1881 3584 
Q 2191 3584 2531 3537 
Q 2872 3491 3272 3391 
z
" transform="scale(0.015625)"/>
      </defs>
      <use xlink:href="#DejaVuSans-Bold-63"/>
      <use xlink:href="#DejaVuSans-Bold-6c" transform="translate(59.277344 0)"/>
      <use xlink:href="#DejaVuSans-Bold-61" transform="translate(93.554688 0)"/>
      <use xlink:href="#DejaVuSans-Bold-73" transform="translate(161.035156 0)"/>
      <use xlink:href="#DejaVuSans-Bold-73" transform="translate(220.556641 0)"/>
     </g>
    </g>
    <g id="patch_3">
     <path d="M 309.507391 106.918281 
L 879.828702 106.918281 
L 879.828702 58.518281 
L 309.507391 58.518281 
z
" style="fill: #f0efec; stroke: #e1e0d9; stroke-linejoin: miter"/>
    </g>
    <g id="text_2">
     <!-- iterated itinerary -->
     <g transform="translate(366.539522 88.702969) scale(0.22 -0.22)">
      <defs>
       <path id="DejaVuSans-Bold-69" d="M 538 3500 
L 1656 3500 
L 1656 0 
L 538 0 
L 538 3500 
z
M 538 4863 
L 1656 4863 
L 1656 3950 
L 538 3950 
L 538 4863 
z
" transform="scale(0.015625)"/>
       <path id="DejaVuSans-Bold-74" d="M 1759 4494 
L 1759 3500 
L 2913 3500 
L 2913 2700 
L 1759 2700 
L 1759 1216 
Q 1759 972 1856 886 
Q 1953 800 2241 800 
L 2816 800 
L 2816 0 
L 1856 0 
Q 1194 0 917 276 
Q 641 553 641 1216 
L 641 2700 
L 84 2700 
L 84 3500 
L 641 3500 
L 641 4494 
L 1759 4494 
z
" transform="scale(0.015625)"/>
       <path id="DejaVuSans-Bold-65" d="M 4031 1759 
L 4031 1441 
L 1416 1441 
Q 1456 1047 1700 850 
Q 1944 653 2381 653 
Q 2734 653 3104 758 
Q 3475 863 3866 1075 
L 3866 213 
Q 3469 63 3072 -14 
Q 2675 -91 2278 -91 
Q 1328 -91 801 392 
Q 275 875 275 1747 
Q 275 2603 792 3093 
Q 1309 3584 2216 3584 
Q 3041 3584 3536 3087 
Q 4031 2591 4031 1759 
z
M 2881 2131 
Q 2881 2450 2695 2645 
Q 2509 2841 2209 2841 
Q 1884 2841 1681 2658 
Q 1478 2475 1428 2131 
L 2881 2131 
z
" transform="scale(0.015625)"/>
       <path id="DejaVuSans-Bold-72" d="M 3138 2547 
Q 2991 2616 2845 2648 
Q 2700 2681 2553 2681 
Q 2122 2681 1889 2404 
Q 1656 2128 1656 1613 
L 1656 0 
L 538 0 
L 538 3500 
L 1656 3500 
L 1656 2925 
Q 1872 3269 2151 3426 
Q 2431 3584 2822 3584 
Q 2878 3584 2943 3579 
Q 3009 3575 3134 3559 
L 3138 2547 
z
" transform="scale(0.015625)"/>
       <path id="DejaVuSans-Bold-64" d="M 2919 2988 
L 2919 4863 
L 4044 4863 
L 4044 0 
L 2919 0 
L 2919 506 
Q 2688 197 2409 53 
Q 2131 -91 1766 -91 
Q 1119 -91 703 423 
Q 288 938 288 1747 
Q 288 2556 703 3070 
Q 1119 3584 1766 3584 
Q 2128 3584 2408 3439 
Q 2688 3294 2919 2988 
z
M 2181 722 
Q 2541 722 2730 984 
Q 2919 1247 2919 1747 
Q 2919 2247 2730 2509 
Q 2541 2772 2181 2772 
Q 1825 2772 1636 2509 
Q 1447 2247 1447 1747 
Q 1447 1247 1636 984 
Q 1825 722 2181 722 
z
" transform="scale(0.015625)"/>
       <path id="DejaVuSans-Bold-20" transform="scale(0.015625)"/>
       <path id="DejaVuSans-Bold-6e" d="M 4056 2131 
L 4056 0 
L 2931 0 
L 2931 347 
L 2931 1631 
Q 2931 2084 2911 2256 
Q 2891 2428 2841 2509 
Q 2775 2619 2662 2680 
Q 2550 2741 2406 2741 
Q 2056 2741 1856 2470 
Q 1656 2200 1656 1722 
L 1656 0 
L 538 0 
L 538 3500 
L 1656 3500 
L 1656 2988 
Q 1909 3294 2193 3439 
Q 2478 3584 2822 3584 
Q 3428 3584 3742 3212 
Q 4056 2841 4056 2131 
z
" transform="scale(0.015625)"/>
       <path id="DejaVuSans-Bold-79" d="M 78 3500 
L 1197 3500 
L 2138 1125 
L 2938 3500 
L 4056 3500 
L 2584 -331 
Q 2363 -916 2067 -1148 
Q 1772 -1381 1288 -1381 
L 641 -1381 
L 641 -647 
L 991 -647 
Q 1275 -647 1404 -556 
Q 1534 -466 1606 -231 
L 1638 -134 
L 78 3500 
z
" transform="scale(0.015625)"/>
      </defs>
      <use xlink:href="#DejaVuSans-Bold-69"/>
      <use xlink:href="#DejaVuSans-Bold-74" transform="translate(34.277344 0)"/>
      <use xlink:href="#DejaVuSans-Bold-65" transform="translate(82.080078 0)"/>
      <use xlink:href="#DejaVuSans-Bold-72" transform="translate(149.902344 0)"/>
      <use xlink:href="#DejaVuSans-Bold-61" transform="translate(199.21875 0)"/>
      <use xlink:href="#DejaVuSans-Bold-74" transform="translate(266.699219 0)"/>
      <use xlink:href="#DejaVuSans-Bold-65" transform="translate(314.501953 0)"/>
      <use xlink:href="#DejaVuSans-Bold-64" transform="translate(382.324219 0)"/>
      <use xlink:href="#DejaVuSans-Bold-20" transform="translate(453.90625 0)"/>
      <use xlink:href="#DejaVuSans-Bold-69" transform="translate(488.720703 0)"/>
      <use xlink:href="#DejaVuSans-Bold-74" transform="translate(522.998047 0)"/>
      <use xlink:href="#DejaVuSans-Bold-69" transform="translate(570.800781 0)"/>
      <use xlink:href="#DejaVuSans-Bold-6e" transform="translate(605.078125 0)"/>
      <use xlink:href="#DejaVuSans-Bold-65" transform="translate(676.269531 0)"/>
      <use xlink:href="#DejaVuSans-Bold-72" transform="translate(744.091797 0)"/>
      <use xlink:href="#DejaVuSans-Bold-61" transform="translate(793.408203 0)"/>
      <use xlink:href="#DejaVuSans-Bold-72" transform="translate(860.888672 0)"/>
      <use xlink:href="#DejaVuSans-Bold-79" transform="translate(910.205078 0)"/>
     </g>
    </g>
    <g id="patch_4">
     <path d="M 879.828702 106.918281 
L 1047.160563 106.918281 
L 1047.160563 58.518281 
L 879.828702 58.518281 
z
" style="fill: #f0efec; stroke: #e1e0d9; stroke-linejoin: miter"/>
    </g>
    <g id="text_3">
     <!-- word -->
     <g transform="translate(896.561888 88.788906) scale(0.22 -0.22)">
      <defs>
       <path id="DejaVuSans-Bold-77" d="M 225 3500 
L 1313 3500 
L 1900 1088 
L 2491 3500 
L 3425 3500 
L 4013 1113 
L 4603 3500 
L 5691 3500 
L 4769 0 
L 3547 0 
L 2956 2406 
L 2369 0 
L 1147 0 
L 225 3500 
z
" transform="scale(0.015625)"/>
       <path id="DejaVuSans-Bold-6f" d="M 2203 2784 
Q 1831 2784 1636 2517 
Q 1441 2250 1441 1747 
Q 1441 1244 1636 976 
Q 1831 709 2203 709 
Q 2569 709 2762 976 
Q 2956 1244 2956 1747 
Q 2956 2250 2762 2517 
Q 2569 2784 2203 2784 
z
M 2203 3584 
Q 3106 3584 3614 3096 
Q 4122 2609 4122 1747 
Q 4122 884 3614 396 
Q 3106 -91 2203 -91 
Q 1297 -91 786 396 
Q 275 884 275 1747 
Q 275 2609 786 3096 
Q 1297 3584 2203 3584 
z
" transform="scale(0.015625)"/>
      </defs>
      <use xlink:href="#DejaVuSans-Bold-77"/>
      <use xlink:href="#DejaVuSans-Bold-6f" transform="translate(92.382812 0)"/>
      <use xlink:href="#DejaVuSans-Bold-72" transform="translate(161.083984 0)"/>
      <use xlink:href="#DejaVuSans-Bold-64" transform="translate(210.400391 0)"/>
     </g>
    </g>
    <g id="patch_5">
     <path d="M 1047.160563 106.918281 
L 1281.6 106.918281 
L 1281.6 58.518281 
L 1047.160563 58.518281 
z
" style="fill: #f0efec; stroke: #e1e0d9; stroke-linejoin: miter"/>
    </g>
    <g id="text_4">
     <!-- refined word -->
     <g transform="translate(1070.604507 88.788906) scale(0.22 -0.22)">
      <defs>
       <path id="DejaVuSans-Bold-66" d="M 2841 4863 
L 2841 4128 
L 2222 4128 
Q 1984 4128 1890 4042 
Q 1797 3956 1797 3744 
L 1797 3500 
L 2753 3500 
L 2753 2700 
L 1797 2700 
L 1797 0 
L 678 0 
L 678 2700 
L 122 2700 
L 122 3500 
L 678 3500 
L 678 3744 
Q 678 4316 997 4589 
Q 1316 4863 1984 4863 
L 2841 4863 
z
" transform="scale(0.015625)"/>
      </defs>
      <use xlink:href="#DejaVuSans-Bold-72"/>
      <use xlink:href="#DejaVuSans-Bold-65" transform="translate(49.316406 0)"/>
      <use xlink:href="#DejaVuSans-Bold-66" transform="translate(117.138672 0)"/>
      <use xlink:href="#DejaVuSans-Bold-69" transform="translate(160.644531 0)"/>
      <use xlink:href="#DejaVuSans-Bold-6e" transform="translate(194.921875 0)"/>
      <use xlink:href="#DejaVuSans-Bold-65" transform="translate(266.113281 0)"/>
      <use xlink:href="#DejaVuSans-Bold-64" transform="translate(333.935547 0)"/>
      <use xlink:href="#DejaVuSans-Bold-20" transform="translate(405.517578 0)"/>
      <use xlink:href="#DejaVuSans-Bold-77" transform="translate(440.332031 0)"/>
      <use xlink:href="#DejaVuSans-Bold-6f" transform="translate(532.714844 0)"/>
      <use xlink:href="#DejaVuSans-Bold-72" transform="translate(601.416016 0)"/>
      <use xlink:href="#DejaVuSans-Bold-64" transform="translate(650.732422 0)"/>
     </g>
    </g>
    <g id="patch_6">
     <path d="M 7.2 155.318281 
L 309.507391 155.318281 
L 309.507391 106.918281 
L 7.2 106.918281 
z
" style="fill: #ffffff; stroke: #e1e0d9; stroke-linejoin: miter"/>
    </g>
    <g id="text_5">
     <!-- $a$ = {$R_{0.0;1}$, $R_{1.0;5}$} -->
     <g transform="translate(37.430739 136.728281) scale(0.22 -0.22)">
      <defs>
       <path id="DejaVuSans-Oblique-61" d="M 3438 1997 
L 3047 0 
L 2472 0 
L 2578 531 
Q 2325 219 2001 64 
Q 1678 -91 1281 -91 
Q 834 -91 548 182 
Q 263 456 263 884 
Q 263 1497 752 1853 
Q 1241 2209 2100 2209 
L 2900 2209 
L 2931 2363 
Q 2938 2388 2941 2417 
Q 2944 2447 2944 2509 
Q 2944 2788 2717 2942 
Q 2491 3097 2081 3097 
Q 1800 3097 1504 3025 
Q 1209 2953 897 2809 
L 997 3341 
Q 1322 3463 1633 3523 
Q 1944 3584 2234 3584 
Q 2853 3584 3176 3315 
Q 3500 3047 3500 2534 
Q 3500 2431 3484 2292 
Q 3469 2153 3438 1997 
z
M 2816 1759 
L 2241 1759 
Q 1534 1759 1195 1570 
Q 856 1381 856 984 
Q 856 709 1029 553 
Q 1203 397 1509 397 
Q 1978 397 2328 733 
Q 2678 1069 2791 1631 
L 2816 1759 
z
" transform="scale(0.015625)"/>
       <path id="DejaVuSans-20" transform="scale(0.015625)"/>
       <path id="DejaVuSans-3d" d="M 678 2906 
L 4684 2906 
L 4684 2381 
L 678 2381 
L 678 2906 
z
M 678 1631 
L 4684 1631 
L 4684 1100 
L 678 1100 
L 678 1631 
z
" transform="scale(0.015625)"/>
       <path id="DejaVuSans-7b" d="M 3272 -594 
L 3272 -1044 
L 3078 -1044 
Q 2300 -1044 2036 -812 
Q 1772 -581 1772 109 
L 1772 856 
Q 1772 1328 1603 1509 
Q 1434 1691 991 1691 
L 800 1691 
L 800 2138 
L 991 2138 
Q 1438 2138 1605 2317 
Q 1772 2497 1772 2963 
L 1772 3713 
Q 1772 4403 2036 4633 
Q 2300 4863 3078 4863 
L 3272 4863 
L 3272 4416 
L 3059 4416 
Q 2619 4416 2484 4278 
Q 2350 4141 2350 3700 
L 2350 2925 
Q 2350 2434 2208 2212 
Q 2066 1991 1722 1913 
Q 2069 1828 2209 1606 
Q 2350 1384 2350 897 
L 2350 122 
Q 2350 -319 2484 -456 
Q 2619 -594 3059 -594 
L 3272 -594 
z
" transform="scale(0.015625)"/>
       <path id="DejaVuSans-Oblique-52" d="M 1613 4147 
L 1294 2491 
L 2106 2491 
Q 2584 2491 2879 2755 
Q 3175 3019 3175 3444 
Q 3175 3784 2976 3965 
Q 2778 4147 2406 4147 
L 1613 4147 
z
M 2772 2241 
Q 2972 2194 3105 2009 
Q 3238 1825 3413 1275 
L 3809 0 
L 3144 0 
L 2778 1197 
Q 2638 1659 2453 1815 
Q 2269 1972 1888 1972 
L 1191 1972 
L 806 0 
L 172 0 
L 1081 4666 
L 2503 4666 
Q 3150 4666 3495 4373 
Q 3841 4081 3841 3531 
Q 3841 3044 3547 2687 
Q 3253 2331 2772 2241 
z
" transform="scale(0.015625)"/>
       <path id="DejaVuSans-30" d="M 2034 4250 
Q 1547 4250 1301 3770 
Q 1056 3291 1056 2328 
Q 1056 1369 1301 889 
Q 1547 409 2034 409 
Q 2525 409 2770 889 
Q 3016 1369 3016 2328 
Q 3016 3291 2770 3770 
Q 2525 4250 2034 4250 
z
M 2034 4750 
Q 2819 4750 3233 4129 
Q 3647 3509 3647 2328 
Q 3647 1150 3233 529 
Q 2819 -91 2034 -91 
Q 1250 -91 836 529 
Q 422 1150 422 2328 
Q 422 3509 836 4129 
Q 1250 4750 2034 4750 
z
" transform="scale(0.015625)"/>
       <path id="DejaVuSans-2e" d="M 684 794 
L 1344 794 
L 1344 0 
L 684 0 
L 684 794 
z
" transform="scale(0.015625)"/>
       <path id="DejaVuSans-3b" d="M 750 3309 
L 1409 3309 
L 1409 2516 
L 750 2516 
L 750 3309 
z
M 750 794 
L 1409 794 
L 1409 256 
L 897 -744 
L 494 -744 
L 750 256 
L 750 794 
z
" transform="scale(0.015625)"/>
       <path id="DejaVuSans-31" d="M 794 531 
L 1825 531 
L 1825 4091 
L 703 3866 
L 703 4441 
L 1819 4666 
L 2450 4666 
L 2450 531 
L 3481 531 
L 3481 0 
L 794 0 
L 794 531 
z
" transform="scale(0.015625)"/>
       <path id="DejaVuSans-2c" d="M 750 794 
L 1409 794 
L 1409 256 
L 897 -744 
L 494 -744 
L 750 256 
L 750 794 
z
" transform="scale(0.015625)"/>
       <path id="DejaVuSans-35" d="M 691 4666 
L 3169 4666 
L 3169 4134 
L 1269 4134 
L 1269 2991 
Q 1406 3038 1543 3061 
Q 1681 3084 1819 3084 
Q 2600 3084 3056 2656 
Q 3513 2228 3513 1497 
Q 3513 744 3044 326 
Q 2575 -91 1722 -91 
Q 1428 -91 1123 -41 
Q 819 9 494 109 
L 494 744 
Q 775 591 1075 516 
Q 1375 441 1709 441 
Q 2250 441 2565 725 
Q 2881 1009 2881 1497 
Q 2881 1984 2565 2268 
Q 2250 2553 1709 2553 
Q 1456 2553 1204 2497 
Q 953 2441 691 2322 
L 691 4666 
z
" transform="scale(0.015625)"/>
       <path id="DejaVuSans-7d" d="M 800 -594 
L 1019 -594 
Q 1456 -594 1589 -459 
Q 1722 -325 1722 122 
L 1722 897 
Q 1722 1384 1862 1606 
Q 2003 1828 2350 1913 
Q 2003 1991 1862 2212 
Q 1722 2434 1722 2925 
L 1722 3700 
Q 1722 4144 1589 4280 
Q 1456 4416 1019 4416 
L 800 4416 
L 800 4863 
L 997 4863 
Q 1775 4863 2036 4633 
Q 2297 4403 2297 3713 
L 2297 2963 
Q 2297 2497 2465 2317 
Q 2634 2138 3078 2138 
L 3272 2138 
L 3272 1691 
L 3078 1691 
Q 2634 1691 2465 1509 
Q 2297 1328 2297 856 
L 2297 109 
Q 2297 -581 2036 -812 
Q 1775 -1044 997 -1044 
L 800 -1044 
L 800 -594 
z
" transform="scale(0.015625)"/>
      </defs>
      <use xlink:href="#DejaVuSans-Oblique-61" transform="translate(0 0.015625)"/>
      <use xlink:href="#DejaVuSans-20" transform="translate(61.279297 0.015625)"/>
      <use xlink:href="#DejaVuSans-3d" transform="translate(93.066406 0.015625)"/>
      <use xlink:href="#DejaVuSans-20" transform="translate(176.855469 0.015625)"/>
      <use xlink:href="#DejaVuSans-7b" transform="translate(208.642578 0.015625)"/>
      <use xlink:href="#DejaVuSans-Oblique-52" transform="translate(272.265625 0.015625)"/>
      <use xlink:href="#DejaVuSans-30" transform="translate(341.748047 -16.390625) scale(0.7)"/>
      <use xlink:href="#DejaVuSans-2e" transform="translate(386.28418 -16.390625) scale(0.7)"/>
      <use xlink:href="#DejaVuSans-30" transform="translate(408.535156 -16.390625) scale(0.7)"/>
      <use xlink:href="#DejaVuSans-3b" transform="translate(453.071289 -16.390625) scale(0.7)"/>
      <use xlink:href="#DejaVuSans-31" transform="translate(490.292969 -16.390625) scale(0.7)"/>
      <use xlink:href="#DejaVuSans-2c" transform="translate(537.563477 0.015625)"/>
      <use xlink:href="#DejaVuSans-20" transform="translate(569.350586 0.015625)"/>
      <use xlink:href="#DejaVuSans-Oblique-52" transform="translate(601.137695 0.015625)"/>
      <use xlink:href="#DejaVuSans-31" transform="translate(670.620117 -16.390625) scale(0.7)"/>
      <use xlink:href="#DejaVuSans-2e" transform="translate(715.15625 -16.390625) scale(0.7)"/>
      <use xlink:href="#DejaVuSans-30" transform="translate(737.407227 -16.390625) scale(0.7)"/>
      <use xlink:href="#DejaVuSans-3b" transform="translate(781.943359 -16.390625) scale(0.7)"/>
      <use xlink:href="#DejaVuSans-35" transform="translate(819.165039 -16.390625) scale(0.7)"/>
      <use xlink:href="#DejaVuSans-7d" transform="translate(866.435547 0.015625)"/>
     </g>
    </g>
    <g id="patch_7">
     <path d="M 309.507391 155.318281 
L 879.828702 155.318281 
L 879.828702 106.918281 
L 309.507391 106.918281 
z
" style="fill: #ffffff; stroke: #e1e0d9; stroke-linejoin: miter"/>
    </g>
    <g id="text_6">
     <!-- $R_{1.0;1}$ $R_{2.0;5}$ -->
     <g transform="translate(366.539522 136.398281) scale(0.22 -0.22)">
      <defs>
       <path id="DejaVuSans-32" d="M 1228 531 
L 3431 531 
L 3431 0 
L 469 0 
L 469 531 
Q 828 903 1448 1529 
Q 2069 2156 2228 2338 
Q 2531 2678 2651 2914 
Q 2772 3150 2772 3378 
Q 2772 3750 2511 3984 
Q 2250 4219 1831 4219 
Q 1534 4219 1204 4116 
Q 875 4013 500 3803 
L 500 4441 
Q 881 4594 1212 4672 
Q 1544 4750 1819 4750 
Q 2544 4750 2975 4387 
Q 3406 4025 3406 3419 
Q 3406 3131 3298 2873 
Q 3191 2616 2906 2266 
Q 2828 2175 2409 1742 
Q 1991 1309 1228 531 
z
" transform="scale(0.015625)"/>
      </defs>
      <use xlink:href="#DejaVuSans-Oblique-52" transform="translate(0 0.09375)"/>
      <use xlink:href="#DejaVuSans-31" transform="translate(69.482422 -16.3125) scale(0.7)"/>
      <use xlink:href="#DejaVuSans-2e" transform="translate(114.018555 -16.3125) scale(0.7)"/>
      <use xlink:href="#DejaVuSans-30" transform="translate(136.269531 -16.3125) scale(0.7)"/>
      <use xlink:href="#DejaVuSans-3b" transform="translate(180.805664 -16.3125) scale(0.7)"/>
      <use xlink:href="#DejaVuSans-31" transform="translate(218.027344 -16.3125) scale(0.7)"/>
      <use xlink:href="#DejaVuSans-20" transform="translate(265.297852 0.09375)"/>
      <use xlink:href="#DejaVuSans-Oblique-52" transform="translate(297.084961 0.09375)"/>
      <use xlink:href="#DejaVuSans-32" transform="translate(366.567383 -16.3125) scale(0.7)"/>
      <use xlink:href="#DejaVuSans-2e" transform="translate(411.103516 -16.3125) scale(0.7)"/>
      <use xlink:href="#DejaVuSans-30" transform="translate(433.354492 -16.3125) scale(0.7)"/>
      <use xlink:href="#DejaVuSans-3b" transform="translate(477.890625 -16.3125) scale(0.7)"/>
      <use xlink:href="#DejaVuSans-35" transform="translate(515.112305 -16.3125) scale(0.7)"/>
     </g>
    </g>
    <g id="patch_8">
     <path d="M 879.828702 155.318281 
L 1047.160563 155.318281 
L 1047.160563 106.918281 
L 879.828702 106.918281 
z
" style="fill: #ffffff; stroke: #e1e0d9; stroke-linejoin: miter"/>
    </g>
    <g id="text_7">
     <!-- $b$ -->
     <g transform="translate(896.561888 137.188906) scale(0.22 -0.22)">
      <defs>
       <path id="DejaVuSans-Oblique-62" d="M 3169 2138 
Q 3169 2591 2961 2847 
Q 2753 3103 2388 3103 
Q 2122 3103 1889 2973 
Q 1656 2844 1484 2597 
Q 1303 2338 1198 1995 
Q 1094 1653 1094 1313 
Q 1094 881 1298 636 
Q 1503 391 1863 391 
Q 2134 391 2365 517 
Q 2597 644 2772 891 
Q 2950 1147 3059 1487 
Q 3169 1828 3169 2138 
z
M 1381 2969 
Q 1594 3256 1914 3420 
Q 2234 3584 2584 3584 
Q 3122 3584 3439 3221 
Q 3756 2859 3756 2241 
Q 3756 1734 3570 1259 
Q 3384 784 3041 416 
Q 2816 172 2522 40 
Q 2228 -91 1906 -91 
Q 1566 -91 1316 65 
Q 1066 222 909 531 
L 806 0 
L 231 0 
L 1178 4863 
L 1753 4863 
L 1381 2969 
z
" transform="scale(0.015625)"/>
      </defs>
      <use xlink:href="#DejaVuSans-Oblique-62" transform="translate(0 0.015625)"/>
     </g>
    </g>
    <g id="patch_9">
     <path d="M 1047.160563 155.318281 
L 1281.6 155.318281 
L 1281.6 106.918281 
L 1047.160563 106.918281 
z
" style="fill: #ffffff; stroke: #e1e0d9; stroke-linejoin: miter"/>
    </g>
    <g id="text_8">
     <!-- $b$ -->
     <g transform="translate(1070.604507 137.188906) scale(0.22 -0.22)">
      <use xlink:href="#DejaVuSans-Oblique-62" transform="translate(0 0.015625)"/>
     </g>
    </g>
    <g id="patch_10">
     <path d="M 7.2 203.718281 
L 309.507391 203.718281 
L 309.507391 155.318281 
L 7.2 155.318281 
z
" style="fill: #ffffff; stroke: #e1e0d9; stroke-linejoin: miter"/>
    </g>
    <g id="text_9">
     <!-- $b$ = {$R_{1.0;1}$, $R_{2.0;5}$} -->
     <g transform="translate(37.430739 185.128281) scale(0.22 -0.22)">
      <use xlink:href="#DejaVuSans-Oblique-62" transform="translate(0 0.015625)"/>
      <use xlink:href="#DejaVuSans-20" transform="translate(63.476562 0.015625)"/>
      <use xlink:href="#DejaVuSans-3d" transform="translate(95.263672 0.015625)"/>
      <use xlink:href="#DejaVuSans-20" transform="translate(179.052734 0.015625)"/>
      <use xlink:href="#DejaVuSans-7b" transform="translate(210.839844 0.015625)"/>
      <use xlink:href="#DejaVuSans-Oblique-52" transform="translate(274.462891 0.015625)"/>
      <use xlink:href="#DejaVuSans-31" transform="translate(343.945312 -16.390625) scale(0.7)"/>
      <use xlink:href="#DejaVuSans-2e" transform="translate(388.481445 -16.390625) scale(0.7)"/>
      <use xlink:href="#DejaVuSans-30" transform="translate(410.732422 -16.390625) scale(0.7)"/>
      <use xlink:href="#DejaVuSans-3b" transform="translate(455.268555 -16.390625) scale(0.7)"/>
      <use xlink:href="#DejaVuSans-31" transform="translate(492.490234 -16.390625) scale(0.7)"/>
      <use xlink:href="#DejaVuSans-2c" transform="translate(539.760742 0.015625)"/>
      <use xlink:href="#DejaVuSans-20" transform="translate(571.547852 0.015625)"/>
      <use xlink:href="#DejaVuSans-Oblique-52" transform="translate(603.334961 0.015625)"/>
      <use xlink:href="#DejaVuSans-32" transform="translate(672.817383 -16.390625) scale(0.7)"/>
      <use xlink:href="#DejaVuSans-2e" transform="translate(717.353516 -16.390625) scale(0.7)"/>
      <use xlink:href="#DejaVuSans-30" transform="translate(739.604492 -16.390625) scale(0.7)"/>
      <use xlink:href="#DejaVuSans-3b" transform="translate(784.140625 -16.390625) scale(0.7)"/>
      <use xlink:href="#DejaVuSans-35" transform="translate(821.362305 -16.390625) scale(0.7)"/>
      <use xlink:href="#DejaVuSans-7d" transform="translate(868.632812 0.015625)"/>
     </g>
    </g>
    <g id="patch_11">
     <path d="M 309.507391 203.718281 
L 879.828702 203.718281 
L 879.828702 155.318281 
L 309.507391 155.318281 
z
" style="fill: #ffffff; stroke: #e1e0d9; stroke-linejoin: miter"/>
    </g>
    <g id="text_10">
     <!-- $R_{2.0;1}$ $R_{0.0;5}$ -->
     <g transform="translate(366.539522 184.798281) scale(0.22 -0.22)">
      <use xlink:href="#DejaVuSans-Oblique-52" transform="translate(0 0.09375)"/>
      <use xlink:href="#DejaVuSans-32" transform="translate(69.482422 -16.3125) scale(0.7)"/>
      <use xlink:href="#DejaVuSans-2e" transform="translate(114.018555 -16.3125) scale(0.7)"/>
      <use xlink:href="#DejaVuSans-30" transform="translate(136.269531 -16.3125) scale(0.7)"/>
      <use xlink:href="#DejaVuSans-3b" transform="translate(180.805664 -16.3125) scale(0.7)"/>
      <use xlink:href="#DejaVuSans-31" transform="translate(218.027344 -16.3125) scale(0.7)"/>
      <use xlink:href="#DejaVuSans-20" transform="translate(265.297852 0.09375)"/>
      <use xlink:href="#DejaVuSans-Oblique-52" transform="translate(297.084961 0.09375)"/>
      <use xlink:href="#DejaVuSans-30" transform="translate(366.567383 -16.3125) scale(0.7)"/>
      <use xlink:href="#DejaVuSans-2e" transform="translate(411.103516 -16.3125) scale(0.7)"/>
      <use xlink:href="#DejaVuSans-30" transform="translate(433.354492 -16.3125) scale(0.7)"/>
      <use xlink:href="#DejaVuSans-3b" transform="translate(477.890625 -16.3125) scale(0.7)"/>
      <use xlink:href="#DejaVuSans-35" transform="translate(515.112305 -16.3125) scale(0.7)"/>
     </g>
    </g>
    <g id="patch_12">
     <path d="M 879.828702 203.718281 
L 1047.160563 203.718281 
L 1047.160563 155.318281 
L 879.828702 155.318281 
z
" style="fill: #ffffff; stroke: #e1e0d9; stroke-linejoin: miter"/>
    </g>
    <g id="text_11">
     <!-- $c$ -->
     <g transform="translate(896.561888 185.588906) scale(0.22 -0.22)">
      <defs>
       <path id="DejaVuSans-Oblique-63" d="M 3431 3366 
L 3316 2797 
Q 3109 2947 2876 3022 
Q 2644 3097 2394 3097 
Q 2119 3097 1870 3000 
Q 1622 2903 1453 2725 
Q 1184 2453 1037 2087 
Q 891 1722 891 1331 
Q 891 859 1127 628 
Q 1363 397 1844 397 
Q 2081 397 2348 469 
Q 2616 541 2906 684 
L 2797 116 
Q 2547 13 2283 -39 
Q 2019 -91 1741 -91 
Q 1044 -91 669 257 
Q 294 606 294 1253 
Q 294 1797 489 2255 
Q 684 2713 1069 3078 
Q 1331 3328 1684 3456 
Q 2038 3584 2456 3584 
Q 2700 3584 2940 3529 
Q 3181 3475 3431 3366 
z
" transform="scale(0.015625)"/>
      </defs>
      <use xlink:href="#DejaVuSans-Oblique-63"/>
     </g>
    </g>
    <g id="patch_13">
     <path d="M 1047.160563 203.718281 
L 1281.6 203.718281 
L 1281.6 155.318281 
L 1047.160563 155.318281 
z
" style="fill: #ffffff; stroke: #e1e0d9; stroke-linejoin: miter"/>
    </g>
    <g id="text_12">
     <!-- $c$ -->
     <g transform="translate(1070.604507 185.588906) scale(0.22 -0.22)">
      <use xlink:href="#DejaVuSans-Oblique-63"/>
     </g>
    </g>
    <g id="patch_14">
     <path d="M 7.2 252.118281 
L 309.507391 252.118281 
L 309.507391 203.718281 
L 7.2 203.718281 
z
" style="fill: #ffffff; stroke: #e1e0d9; stroke-linejoin: miter"/>
    </g>
    <g id="text_13">
     <!-- $c$ = {$R_{2.0;1}$, $R_{0.0;5}$} -->
     <g transform="translate(37.430739 233.528281) scale(0.22 -0.22)">
      <use xlink:href="#DejaVuSans-Oblique-63" transform="translate(0 0.015625)"/>
      <use xlink:href="#DejaVuSans-20" transform="translate(54.980469 0.015625)"/>
      <use xlink:href="#DejaVuSans-3d" transform="translate(86.767578 0.015625)"/>
      <use xlink:href="#DejaVuSans-20" transform="translate(170.556641 0.015625)"/>
      <use xlink:href="#DejaVuSans-7b" transform="translate(202.34375 0.015625)"/>
      <use xlink:href="#DejaVuSans-Oblique-52" transform="translate(265.966797 0.015625)"/>
      <use xlink:href="#DejaVuSans-32" transform="translate(335.449219 -16.390625) scale(0.7)"/>
      <use xlink:href="#DejaVuSans-2e" transform="translate(379.985352 -16.390625) scale(0.7)"/>
      <use xlink:href="#DejaVuSans-30" transform="translate(402.236328 -16.390625) scale(0.7)"/>
      <use xlink:href="#DejaVuSans-3b" transform="translate(446.772461 -16.390625) scale(0.7)"/>
      <use xlink:href="#DejaVuSans-31" transform="translate(483.994141 -16.390625) scale(0.7)"/>
      <use xlink:href="#DejaVuSans-2c" transform="translate(531.264648 0.015625)"/>
      <use xlink:href="#DejaVuSans-20" transform="translate(563.051758 0.015625)"/>
      <use xlink:href="#DejaVuSans-Oblique-52" transform="translate(594.838867 0.015625)"/>
      <use xlink:href="#DejaVuSans-30" transform="translate(664.321289 -16.390625) scale(0.7)"/>
      <use xlink:href="#DejaVuSans-2e" transform="translate(708.857422 -16.390625) scale(0.7)"/>
      <use xlink:href="#DejaVuSans-30" transform="translate(731.108398 -16.390625) scale(0.7)"/>
      <use xlink:href="#DejaVuSans-3b" transform="translate(775.644531 -16.390625) scale(0.7)"/>
      <use xlink:href="#DejaVuSans-35" transform="translate(812.866211 -16.390625) scale(0.7)"/>
      <use xlink:href="#DejaVuSans-7d" transform="translate(860.136719 0.015625)"/>
     </g>
    </g>
    <g id="patch_15">
     <path d="M 309.507391 252.118281 
L 879.828702 252.118281 
L 879.828702 203.718281 
L 309.507391 203.718281 
z
" style="fill: #ffffff; stroke: #e1e0d9; stroke-linejoin: miter"/>
    </g>
    <g id="text_14">
     <!-- $R_{0.0;1}$ $R_{1.0;5}$ | $L_{1.0;3}$ $L_{1.0;1}$ | $R_{1.0;4}$ $R_{1.0;2}$ -->
     <g transform="translate(366.539522 233.638281) scale(0.22 -0.22)">
      <defs>
       <path id="DejaVuSans-7c" d="M 1344 4891 
L 1344 -1509 
L 813 -1509 
L 813 4891 
L 1344 4891 
z
" transform="scale(0.015625)"/>
       <path id="DejaVuSans-Oblique-4c" d="M 1075 4666 
L 1709 4666 
L 909 525 
L 3181 525 
L 3078 0 
L 172 0 
L 1075 4666 
z
" transform="scale(0.015625)"/>
       <path id="DejaVuSans-33" d="M 2597 2516 
Q 3050 2419 3304 2112 
Q 3559 1806 3559 1356 
Q 3559 666 3084 287 
Q 2609 -91 1734 -91 
Q 1441 -91 1130 -33 
Q 819 25 488 141 
L 488 750 
Q 750 597 1062 519 
Q 1375 441 1716 441 
Q 2309 441 2620 675 
Q 2931 909 2931 1356 
Q 2931 1769 2642 2001 
Q 2353 2234 1838 2234 
L 1294 2234 
L 1294 2753 
L 1863 2753 
Q 2328 2753 2575 2939 
Q 2822 3125 2822 3475 
Q 2822 3834 2567 4026 
Q 2313 4219 1838 4219 
Q 1578 4219 1281 4162 
Q 984 4106 628 3988 
L 628 4550 
Q 988 4650 1302 4700 
Q 1616 4750 1894 4750 
Q 2613 4750 3031 4423 
Q 3450 4097 3450 3541 
Q 3450 3153 3228 2886 
Q 3006 2619 2597 2516 
z
" transform="scale(0.015625)"/>
       <path id="DejaVuSans-34" d="M 2419 4116 
L 825 1625 
L 2419 1625 
L 2419 4116 
z
M 2253 4666 
L 3047 4666 
L 3047 1625 
L 3713 1625 
L 3713 1100 
L 3047 1100 
L 3047 0 
L 2419 0 
L 2419 1100 
L 313 1100 
L 313 1709 
L 2253 4666 
z
" transform="scale(0.015625)"/>
      </defs>
      <use xlink:href="#DejaVuSans-Oblique-52" transform="translate(0 0.578125)"/>
      <use xlink:href="#DejaVuSans-30" transform="translate(69.482422 -15.828125) scale(0.7)"/>
      <use xlink:href="#DejaVuSans-2e" transform="translate(114.018555 -15.828125) scale(0.7)"/>
      <use xlink:href="#DejaVuSans-30" transform="translate(136.269531 -15.828125) scale(0.7)"/>
      <use xlink:href="#DejaVuSans-3b" transform="translate(180.805664 -15.828125) scale(0.7)"/>
      <use xlink:href="#DejaVuSans-31" transform="translate(218.027344 -15.828125) scale(0.7)"/>
      <use xlink:href="#DejaVuSans-20" transform="translate(265.297852 0.578125)"/>
      <use xlink:href="#DejaVuSans-Oblique-52" transform="translate(297.084961 0.578125)"/>
      <use xlink:href="#DejaVuSans-31" transform="translate(366.567383 -15.828125) scale(0.7)"/>
      <use xlink:href="#DejaVuSans-2e" transform="translate(411.103516 -15.828125) scale(0.7)"/>
      <use xlink:href="#DejaVuSans-30" transform="translate(433.354492 -15.828125) scale(0.7)"/>
      <use xlink:href="#DejaVuSans-3b" transform="translate(477.890625 -15.828125) scale(0.7)"/>
      <use xlink:href="#DejaVuSans-35" transform="translate(515.112305 -15.828125) scale(0.7)"/>
      <use xlink:href="#DejaVuSans-20" transform="translate(562.382812 0.578125)"/>
      <use xlink:href="#DejaVuSans-7c" transform="translate(594.169922 0.578125)"/>
      <use xlink:href="#DejaVuSans-20" transform="translate(627.861328 0.578125)"/>
      <use xlink:href="#DejaVuSans-Oblique-4c" transform="translate(659.648438 0.578125)"/>
      <use xlink:href="#DejaVuSans-31" transform="translate(715.361328 -15.828125) scale(0.7)"/>
      <use xlink:href="#DejaVuSans-2e" transform="translate(759.897461 -15.828125) scale(0.7)"/>
      <use xlink:href="#DejaVuSans-30" transform="translate(782.148438 -15.828125) scale(0.7)"/>
      <use xlink:href="#DejaVuSans-3b" transform="translate(826.68457 -15.828125) scale(0.7)"/>
      <use xlink:href="#DejaVuSans-33" transform="translate(863.90625 -15.828125) scale(0.7)"/>
      <use xlink:href="#DejaVuSans-20" transform="translate(911.176758 0.578125)"/>
      <use xlink:href="#DejaVuSans-Oblique-4c" transform="translate(942.963867 0.578125)"/>
      <use xlink:href="#DejaVuSans-31" transform="translate(998.676758 -15.828125) scale(0.7)"/>
      <use xlink:href="#DejaVuSans-2e" transform="translate(1043.212891 -15.828125) scale(0.7)"/>
      <use xlink:href="#DejaVuSans-30" transform="translate(1065.463867 -15.828125) scale(0.7)"/>
      <use xlink:href="#DejaVuSans-3b" transform="translate(1110 -15.828125) scale(0.7)"/>
      <use xlink:href="#DejaVuSans-31" transform="translate(1147.22168 -15.828125) scale(0.7)"/>
      <use xlink:href="#DejaVuSans-20" transform="translate(1194.492188 0.578125)"/>
      <use xlink:href="#DejaVuSans-7c" transform="translate(1226.279297 0.578125)"/>
      <use xlink:href="#DejaVuSans-20" transform="translate(1259.970703 0.578125)"/>
      <use xlink:href="#DejaVuSans-Oblique-52" transform="translate(1291.757812 0.578125)"/>
      <use xlink:href="#DejaVuSans-31" transform="translate(1361.240234 -15.828125) scale(0.7)"/>
      <use xlink:href="#DejaVuSans-2e" transform="translate(1405.776367 -15.828125) scale(0.7)"/>
      <use xlink:href="#DejaVuSans-30" transform="translate(1428.027344 -15.828125) scale(0.7)"/>
      <use xlink:href="#DejaVuSans-3b" transform="translate(1472.563477 -15.828125) scale(0.7)"/>
      <use xlink:href="#DejaVuSans-34" transform="translate(1509.785156 -15.828125) scale(0.7)"/>
      <use xlink:href="#DejaVuSans-20" transform="translate(1557.055664 0.578125)"/>
      <use xlink:href="#DejaVuSans-Oblique-52" transform="translate(1588.842773 0.578125)"/>
      <use xlink:href="#DejaVuSans-31" transform="translate(1658.325195 -15.828125) scale(0.7)"/>
      <use xlink:href="#DejaVuSans-2e" transform="translate(1702.861328 -15.828125) scale(0.7)"/>
      <use xlink:href="#DejaVuSans-30" transform="translate(1725.112305 -15.828125) scale(0.7)"/>
      <use xlink:href="#DejaVuSans-3b" transform="translate(1769.648438 -15.828125) scale(0.7)"/>
      <use xlink:href="#DejaVuSans-32" transform="translate(1806.870117 -15.828125) scale(0.7)"/>
     </g>
    </g>
    <g id="patch_16">
     <path d="M 879.828702 252.118281 
L 1047.160563 252.118281 
L 1047.160563 203.718281 
L 879.828702 203.718281 
z
" style="fill: #ffffff; stroke: #e1e0d9; stroke-linejoin: miter"/>
    </g>
    <g id="text_15">
     <!-- $a$ $u^{-1}$ $w^{-1}$ -->
     <g transform="translate(896.561888 233.988906) scale(0.22 -0.22)">
      <defs>
       <path id="DejaVuSans-Oblique-75" d="M 428 1388 
L 838 3500 
L 1416 3500 
L 1006 1409 
Q 975 1256 961 1147 
Q 947 1038 947 966 
Q 947 700 1109 554 
Q 1272 409 1569 409 
Q 2031 409 2368 721 
Q 2706 1034 2809 1563 
L 3194 3500 
L 3769 3500 
L 3091 0 
L 2516 0 
L 2631 550 
Q 2388 244 2052 76 
Q 1716 -91 1338 -91 
Q 878 -91 622 161 
Q 366 413 366 863 
Q 366 956 381 1097 
Q 397 1238 428 1388 
z
" transform="scale(0.015625)"/>
       <path id="DejaVuSans-2212" d="M 678 2272 
L 4684 2272 
L 4684 1741 
L 678 1741 
L 678 2272 
z
" transform="scale(0.015625)"/>
       <path id="DejaVuSans-Oblique-77" d="M 544 3500 
L 1113 3500 
L 1259 684 
L 2566 3500 
L 3231 3500 
L 3425 684 
L 4666 3500 
L 5241 3500 
L 3641 0 
L 2969 0 
L 2797 2900 
L 1459 0 
L 781 0 
L 544 3500 
z
" transform="scale(0.015625)"/>
      </defs>
      <use xlink:href="#DejaVuSans-Oblique-61" transform="translate(0 0.684375)"/>
      <use xlink:href="#DejaVuSans-20" transform="translate(61.279297 0.684375)"/>
      <use xlink:href="#DejaVuSans-Oblique-75" transform="translate(93.066406 0.684375)"/>
      <use xlink:href="#DejaVuSans-2212" transform="translate(160.911458 38.965625) scale(0.7)"/>
      <use xlink:href="#DejaVuSans-31" transform="translate(219.563802 38.965625) scale(0.7)"/>
      <use xlink:href="#DejaVuSans-20" transform="translate(266.83431 0.684375)"/>
      <use xlink:href="#DejaVuSans-Oblique-77" transform="translate(298.621419 0.684375)"/>
      <use xlink:href="#DejaVuSans-2212" transform="translate(384.874674 38.965625) scale(0.7)"/>
      <use xlink:href="#DejaVuSans-31" transform="translate(443.527018 38.965625) scale(0.7)"/>
     </g>
    </g>
    <g id="patch_17">
     <path d="M 1047.160563 252.118281 
L 1281.6 252.118281 
L 1281.6 203.718281 
L 1047.160563 203.718281 
z
" style="fill: #ffffff; stroke: #e1e0d9; stroke-linejoin: miter"/>
    </g>
    <g id="text_16">
     <!-- $a$ $u^{-1}$ $w^{-1}$ -->
     <g transform="translate(1070.604507 233.988906) scale(0.22 -0.22)">
      <use xlink:href="#DejaVuSans-Oblique-61" transform="translate(0 0.684375)"/>
      <use xlink:href="#DejaVuSans-20" transform="translate(61.279297 0.684375)"/>
      <use xlink:href="#DejaVuSans-Oblique-75" transform="translate(93.066406 0.684375)"/>
      <use xlink:href="#DejaVuSans-2212" transform="translate(160.911458 38.965625) scale(0.7)"/>
      <use xlink:href="#DejaVuSans-31" transform="translate(219.563802 38.965625) scale(0.7)"/>
      <use xlink:href="#DejaVuSans-20" transform="translate(266.83431 0.684375)"/>
      <use xlink:href="#DejaVuSans-Oblique-77" transform="translate(298.621419 0.684375)"/>
      <use xlink:href="#DejaVuSans-2212" transform="translate(384.874674 38.965625) scale(0.7)"/>
      <use xlink:href="#DejaVuSans-31" transform="translate(443.527018 38.965625) scale(0.7)"/>
     </g>
    </g>
    <g id="patch_18">
     <path d="M 7.2 300.518281 
L 309.507391 300.518281 
L 309.507391 252.118281 
L 7.2 252.118281 
z
" style="fill: #ffffff; stroke: #e1e0d9; stroke-linejoin: miter"/>
    </g>
    <g id="text_17">
     <!-- $u$ = {$L_{1.0;1}$, $L_{1.0;3}$} -->
     <g transform="translate(37.430739 281.928281) scale(0.22 -0.22)">
      <use xlink:href="#DejaVuSans-Oblique-75" transform="translate(0 0.015625)"/>
      <use xlink:href="#DejaVuSans-20" transform="translate(63.378906 0.015625)"/>
      <use xlink:href="#DejaVuSans-3d" transform="translate(95.166016 0.015625)"/>
      <use xlink:href="#DejaVuSans-20" transform="translate(178.955078 0.015625)"/>
      <use xlink:href="#DejaVuSans-7b" transform="translate(210.742188 0.015625)"/>
      <use xlink:href="#DejaVuSans-Oblique-4c" transform="translate(274.365234 0.015625)"/>
      <use xlink:href="#DejaVuSans-31" transform="translate(330.078125 -16.390625) scale(0.7)"/>
      <use xlink:href="#DejaVuSans-2e" transform="translate(374.614258 -16.390625) scale(0.7)"/>
      <use xlink:href="#DejaVuSans-30" transform="translate(396.865234 -16.390625) scale(0.7)"/>
      <use xlink:href="#DejaVuSans-3b" transform="translate(441.401367 -16.390625) scale(0.7)"/>
      <use xlink:href="#DejaVuSans-31" transform="translate(478.623047 -16.390625) scale(0.7)"/>
      <use xlink:href="#DejaVuSans-2c" transform="translate(525.893555 0.015625)"/>
      <use xlink:href="#DejaVuSans-20" transform="translate(557.680664 0.015625)"/>
      <use xlink:href="#DejaVuSans-Oblique-4c" transform="translate(589.467773 0.015625)"/>
      <use xlink:href="#DejaVuSans-31" transform="translate(645.180664 -16.390625) scale(0.7)"/>
      <use xlink:href="#DejaVuSans-2e" transform="translate(689.716797 -16.390625) scale(0.7)"/>
      <use xlink:href="#DejaVuSans-30" transform="translate(711.967773 -16.390625) scale(0.7)"/>
      <use xlink:href="#DejaVuSans-3b" transform="translate(756.503906 -16.390625) scale(0.7)"/>
      <use xlink:href="#DejaVuSans-33" transform="translate(793.725586 -16.390625) scale(0.7)"/>
      <use xlink:href="#DejaVuSans-7d" transform="translate(840.996094 0.015625)"/>
     </g>
    </g>
    <g id="patch_19">
     <path d="M 309.507391 300.518281 
L 879.828702 300.518281 
L 879.828702 252.118281 
L 309.507391 252.118281 
z
" style="fill: #ffffff; stroke: #e1e0d9; stroke-linejoin: miter"/>
    </g>
    <g id="text_18">
     <!-- $L_{2.0;1}$ $L_{2.0;3}$ -->
     <g transform="translate(366.539522 281.598281) scale(0.22 -0.22)">
      <use xlink:href="#DejaVuSans-Oblique-4c" transform="translate(0 0.09375)"/>
      <use xlink:href="#DejaVuSans-32" transform="translate(55.712891 -16.3125) scale(0.7)"/>
      <use xlink:href="#DejaVuSans-2e" transform="translate(100.249023 -16.3125) scale(0.7)"/>
      <use xlink:href="#DejaVuSans-30" transform="translate(122.5 -16.3125) scale(0.7)"/>
      <use xlink:href="#DejaVuSans-3b" transform="translate(167.036133 -16.3125) scale(0.7)"/>
      <use xlink:href="#DejaVuSans-31" transform="translate(204.257812 -16.3125) scale(0.7)"/>
      <use xlink:href="#DejaVuSans-20" transform="translate(251.52832 0.09375)"/>
      <use xlink:href="#DejaVuSans-Oblique-4c" transform="translate(283.31543 0.09375)"/>
      <use xlink:href="#DejaVuSans-32" transform="translate(339.02832 -16.3125) scale(0.7)"/>
      <use xlink:href="#DejaVuSans-2e" transform="translate(383.564453 -16.3125) scale(0.7)"/>
      <use xlink:href="#DejaVuSans-30" transform="translate(405.81543 -16.3125) scale(0.7)"/>
      <use xlink:href="#DejaVuSans-3b" transform="translate(450.351562 -16.3125) scale(0.7)"/>
      <use xlink:href="#DejaVuSans-33" transform="translate(487.573242 -16.3125) scale(0.7)"/>
     </g>
    </g>
    <g id="patch_20">
     <path d="M 879.828702 300.518281 
L 1047.160563 300.518281 
L 1047.160563 252.118281 
L 879.828702 252.118281 
z
" style="fill: #ffffff; stroke: #e1e0d9; stroke-linejoin: miter"/>
    </g>
    <g id="text_19">
     <!-- $v$ -->
     <g transform="translate(896.561888 282.388906) scale(0.22 -0.22)">
      <defs>
       <path id="DejaVuSans-Oblique-76" d="M 459 3500 
L 1069 3500 
L 1581 525 
L 3256 3500 
L 3866 3500 
L 1875 0 
L 1100 0 
L 459 3500 
z
" transform="scale(0.015625)"/>
      </defs>
      <use xlink:href="#DejaVuSans-Oblique-76" transform="translate(0 0.3125)"/>
     </g>
    </g>
    <g id="patch_21">
     <path d="M 1047.160563 300.518281 
L 1281.6 300.518281 
L 1281.6 252.118281 
L 1047.160563 252.118281 
z
" style="fill: #ffffff; stroke: #e1e0d9; stroke-linejoin: miter"/>
    </g>
    <g id="text_20">
     <!-- $v$ -->
     <g transform="translate(1070.604507 282.388906) scale(0.22 -0.22)">
      <use xlink:href="#DejaVuSans-Oblique-76" transform="translate(0 0.3125)"/>
     </g>
    </g>
    <g id="patch_22">
     <path d="M 7.2 348.918281 
L 309.507391 348.918281 
L 309.507391 300.518281 
L 7.2 300.518281 
z
" style="fill: #ffffff; stroke: #e1e0d9; stroke-linejoin: miter"/>
    </g>
    <g id="text_21">
     <!-- $v$ = {$L_{2.0;1}$, $L_{2.0;3}$} -->
     <g transform="translate(37.430739 330.328281) scale(0.22 -0.22)">
      <use xlink:href="#DejaVuSans-Oblique-76" transform="translate(0 0.015625)"/>
      <use xlink:href="#DejaVuSans-20" transform="translate(59.179688 0.015625)"/>
      <use xlink:href="#DejaVuSans-3d" transform="translate(90.966797 0.015625)"/>
      <use xlink:href="#DejaVuSans-20" transform="translate(174.755859 0.015625)"/>
      <use xlink:href="#DejaVuSans-7b" transform="translate(206.542969 0.015625)"/>
      <use xlink:href="#DejaVuSans-Oblique-4c" transform="translate(270.166016 0.015625)"/>
      <use xlink:href="#DejaVuSans-32" transform="translate(325.878906 -16.390625) scale(0.7)"/>
      <use xlink:href="#DejaVuSans-2e" transform="translate(370.415039 -16.390625) scale(0.7)"/>
      <use xlink:href="#DejaVuSans-30" transform="translate(392.666016 -16.390625) scale(0.7)"/>
      <use xlink:href="#DejaVuSans-3b" transform="translate(437.202148 -16.390625) scale(0.7)"/>
      <use xlink:href="#DejaVuSans-31" transform="translate(474.423828 -16.390625) scale(0.7)"/>
      <use xlink:href="#DejaVuSans-2c" transform="translate(521.694336 0.015625)"/>
      <use xlink:href="#DejaVuSans-20" transform="translate(553.481445 0.015625)"/>
      <use xlink:href="#DejaVuSans-Oblique-4c" transform="translate(585.268555 0.015625)"/>
      <use xlink:href="#DejaVuSans-32" transform="translate(640.981445 -16.390625) scale(0.7)"/>
      <use xlink:href="#DejaVuSans-2e" transform="translate(685.517578 -16.390625) scale(0.7)"/>
      <use xlink:href="#DejaVuSans-30" transform="translate(707.768555 -16.390625) scale(0.7)"/>
      <use xlink:href="#DejaVuSans-3b" transform="translate(752.304688 -16.390625) scale(0.7)"/>
      <use xlink:href="#DejaVuSans-33" transform="translate(789.526367 -16.390625) scale(0.7)"/>
      <use xlink:href="#DejaVuSans-7d" transform="translate(836.796875 0.015625)"/>
     </g>
    </g>
    <g id="patch_23">
     <path d="M 309.507391 348.918281 
L 879.828702 348.918281 
L 879.828702 300.518281 
L 309.507391 300.518281 
z
" style="fill: #ffffff; stroke: #e1e0d9; stroke-linejoin: miter"/>
    </g>
    <g id="text_22">
     <!-- $L_{0.0;1}$ $L_{0.0;3}$ -->
     <g transform="translate(366.539522 329.998281) scale(0.22 -0.22)">
      <use xlink:href="#DejaVuSans-Oblique-4c" transform="translate(0 0.09375)"/>
      <use xlink:href="#DejaVuSans-30" transform="translate(55.712891 -16.3125) scale(0.7)"/>
      <use xlink:href="#DejaVuSans-2e" transform="translate(100.249023 -16.3125) scale(0.7)"/>
      <use xlink:href="#DejaVuSans-30" transform="translate(122.5 -16.3125) scale(0.7)"/>
      <use xlink:href="#DejaVuSans-3b" transform="translate(167.036133 -16.3125) scale(0.7)"/>
      <use xlink:href="#DejaVuSans-31" transform="translate(204.257812 -16.3125) scale(0.7)"/>
      <use xlink:href="#DejaVuSans-20" transform="translate(251.52832 0.09375)"/>
      <use xlink:href="#DejaVuSans-Oblique-4c" transform="translate(283.31543 0.09375)"/>
      <use xlink:href="#DejaVuSans-30" transform="translate(339.02832 -16.3125) scale(0.7)"/>
      <use xlink:href="#DejaVuSans-2e" transform="translate(383.564453 -16.3125) scale(0.7)"/>
      <use xlink:href="#DejaVuSans-30" transform="translate(405.81543 -16.3125) scale(0.7)"/>
      <use xlink:href="#DejaVuSans-3b" transform="translate(450.351562 -16.3125) scale(0.7)"/>
      <use xlink:href="#DejaVuSans-33" transform="translate(487.573242 -16.3125) scale(0.7)"/>
     </g>
    </g>
    <g id="patch_24">
     <path d="M 879.828702 348.918281 
L 1047.160563 348.918281 
L 1047.160563 300.518281 
L 879.828702 300.518281 
z
" style="fill: #ffffff; stroke: #e1e0d9; stroke-linejoin: miter"/>
    </g>
    <g id="text_23">
     <!-- $x$ -->
     <g transform="translate(896.561888 330.788906) scale(0.22 -0.22)">
      <defs>
       <path id="DejaVuSans-Oblique-78" d="M 3841 3500 
L 2234 1784 
L 3219 0 
L 2559 0 
L 1819 1388 
L 531 0 
L -166 0 
L 1556 1844 
L 641 3500 
L 1300 3500 
L 1972 2234 
L 3144 3500 
L 3841 3500 
z
" transform="scale(0.015625)"/>
      </defs>
      <use xlink:href="#DejaVuSans-Oblique-78" transform="translate(0 0.3125)"/>
     </g>
    </g>
    <g id="patch_25">
     <path d="M 1047.160563 348.918281 
L 1281.6 348.918281 
L 1281.6 300.518281 
L 1047.160563 300.518281 
z
" style="fill: #ffffff; stroke: #e1e0d9; stroke-linejoin: miter"/>
    </g>
    <g id="text_24">
     <!-- $x$ -->
     <g transform="translate(1070.604507 330.788906) scale(0.22 -0.22)">
      <use xlink:href="#DejaVuSans-Oblique-78" transform="translate(0 0.3125)"/>
     </g>
    </g>
    <g id="patch_26">
     <path d="M 7.2 397.318281 
L 309.507391 397.318281 
L 309.507391 348.918281 
L 7.2 348.918281 
z
" style="fill: #ffffff; stroke: #e1e0d9; stroke-linejoin: miter"/>
    </g>
    <g id="text_25">
     <!-- $w$ = {$R_{1.0;2}$, $R_{1.0;4}$} -->
     <g transform="translate(37.430739 378.728281) scale(0.22 -0.22)">
      <use xlink:href="#DejaVuSans-Oblique-77" transform="translate(0 0.015625)"/>
      <use xlink:href="#DejaVuSans-20" transform="translate(81.787109 0.015625)"/>
      <use xlink:href="#DejaVuSans-3d" transform="translate(113.574219 0.015625)"/>
      <use xlink:href="#DejaVuSans-20" transform="translate(197.363281 0.015625)"/>
      <use xlink:href="#DejaVuSans-7b" transform="translate(229.150391 0.015625)"/>
      <use xlink:href="#DejaVuSans-Oblique-52" transform="translate(292.773438 0.015625)"/>
      <use xlink:href="#DejaVuSans-31" transform="translate(362.255859 -16.390625) scale(0.7)"/>
      <use xlink:href="#DejaVuSans-2e" transform="translate(406.791992 -16.390625) scale(0.7)"/>
      <use xlink:href="#DejaVuSans-30" transform="translate(429.042969 -16.390625) scale(0.7)"/>
      <use xlink:href="#DejaVuSans-3b" transform="translate(473.579102 -16.390625) scale(0.7)"/>
      <use xlink:href="#DejaVuSans-32" transform="translate(510.800781 -16.390625) scale(0.7)"/>
      <use xlink:href="#DejaVuSans-2c" transform="translate(558.071289 0.015625)"/>
      <use xlink:href="#DejaVuSans-20" transform="translate(589.858398 0.015625)"/>
      <use xlink:href="#DejaVuSans-Oblique-52" transform="translate(621.645508 0.015625)"/>
      <use xlink:href="#DejaVuSans-31" transform="translate(691.12793 -16.390625) scale(0.7)"/>
      <use xlink:href="#DejaVuSans-2e" transform="translate(735.664062 -16.390625) scale(0.7)"/>
      <use xlink:href="#DejaVuSans-30" transform="translate(757.915039 -16.390625) scale(0.7)"/>
      <use xlink:href="#DejaVuSans-3b" transform="translate(802.451172 -16.390625) scale(0.7)"/>
      <use xlink:href="#DejaVuSans-34" transform="translate(839.672852 -16.390625) scale(0.7)"/>
      <use xlink:href="#DejaVuSans-7d" transform="translate(886.943359 0.015625)"/>
     </g>
    </g>
    <g id="patch_27">
     <path d="M 309.507391 397.318281 
L 879.828702 397.318281 
L 879.828702 348.918281 
L 309.507391 348.918281 
z
" style="fill: #ffffff; stroke: #e1e0d9; stroke-linejoin: miter"/>
    </g>
    <g id="text_26">
     <!-- $R_{2.0;2}$ $R_{2.0;4}$ -->
     <g transform="translate(366.539522 378.398281) scale(0.22 -0.22)">
      <use xlink:href="#DejaVuSans-Oblique-52" transform="translate(0 0.09375)"/>
      <use xlink:href="#DejaVuSans-32" transform="translate(69.482422 -16.3125) scale(0.7)"/>
      <use xlink:href="#DejaVuSans-2e" transform="translate(114.018555 -16.3125) scale(0.7)"/>
      <use xlink:href="#DejaVuSans-30" transform="translate(136.269531 -16.3125) scale(0.7)"/>
      <use xlink:href="#DejaVuSans-3b" transform="translate(180.805664 -16.3125) scale(0.7)"/>
      <use xlink:href="#DejaVuSans-32" transform="translate(218.027344 -16.3125) scale(0.7)"/>
      <use xlink:href="#DejaVuSans-20" transform="translate(265.297852 0.09375)"/>
      <use xlink:href="#DejaVuSans-Oblique-52" transform="translate(297.084961 0.09375)"/>
      <use xlink:href="#DejaVuSans-32" transform="translate(366.567383 -16.3125) scale(0.7)"/>
      <use xlink:href="#DejaVuSans-2e" transform="translate(411.103516 -16.3125) scale(0.7)"/>
      <use xlink:href="#DejaVuSans-30" transform="translate(433.354492 -16.3125) scale(0.7)"/>
      <use xlink:href="#DejaVuSans-3b" transform="translate(477.890625 -16.3125) scale(0.7)"/>
      <use xlink:href="#DejaVuSans-34" transform="translate(515.112305 -16.3125) scale(0.7)"/>
     </g>
    </g>
    <g id="patch_28">
     <path d="M 879.828702 397.318281 
L 1047.160563 397.318281 
L 1047.160563 348.918281 
L 879.828702 348.918281 
z
" style="fill: #ffffff; stroke: #e1e0d9; stroke-linejoin: miter"/>
    </g>
    <g id="text_27">
     <!-- $y$ -->
     <g transform="translate(896.561888 379.144219) scale(0.22 -0.22)">
      <defs>
       <path id="DejaVuSans-Oblique-79" d="M 1588 -325 
Q 1188 -997 936 -1164 
Q 684 -1331 294 -1331 
L -159 -1331 
L -63 -850 
L 269 -850 
Q 509 -850 678 -719 
Q 847 -588 1056 -206 
L 1234 128 
L 459 3500 
L 1069 3500 
L 1650 819 
L 3256 3500 
L 3859 3500 
L 1588 -325 
z
" transform="scale(0.015625)"/>
      </defs>
      <use xlink:href="#DejaVuSans-Oblique-79" transform="translate(0 0.3125)"/>
     </g>
    </g>
    <g id="patch_29">
     <path d="M 1047.160563 397.318281 
L 1281.6 397.318281 
L 1281.6 348.918281 
L 1047.160563 348.918281 
z
" style="fill: #ffffff; stroke: #e1e0d9; stroke-linejoin: miter"/>
    </g>
    <g id="text_28">
     <!-- $y$ -->
     <g transform="translate(1070.604507 379.144219) scale(0.22 -0.22)">
      <use xlink:href="#DejaVuSans-Oblique-79" transform="translate(0 0.3125)"/>
     </g>
    </g>
    <g id="patch_30">
     <path d="M 7.2 445.718281 
L 309.507391 445.718281 
L 309.507391 397.318281 
L 7.2 397.318281 
z
" style="fill: #ffffff; stroke: #e1e0d9; stroke-linejoin: miter"/>
    </g>
    <g id="text_29">
     <!-- $x$ = {$L_{0.0;1}$, $L_{0.0;3}$} -->
     <g transform="translate(37.430739 427.128281) scale(0.22 -0.22)">
      <use xlink:href="#DejaVuSans-Oblique-78" transform="translate(0 0.015625)"/>
      <use xlink:href="#DejaVuSans-20" transform="translate(59.179688 0.015625)"/>
      <use xlink:href="#DejaVuSans-3d" transform="translate(90.966797 0.015625)"/>
      <use xlink:href="#DejaVuSans-20" transform="translate(174.755859 0.015625)"/>
      <use xlink:href="#DejaVuSans-7b" transform="translate(206.542969 0.015625)"/>
      <use xlink:href="#DejaVuSans-Oblique-4c" transform="translate(270.166016 0.015625)"/>
      <use xlink:href="#DejaVuSans-30" transform="translate(325.878906 -16.390625) scale(0.7)"/>
      <use xlink:href="#DejaVuSans-2e" transform="translate(370.415039 -16.390625) scale(0.7)"/>
      <use xlink:href="#DejaVuSans-30" transform="translate(392.666016 -16.390625) scale(0.7)"/>
      <use xlink:href="#DejaVuSans-3b" transform="translate(437.202148 -16.390625) scale(0.7)"/>
      <use xlink:href="#DejaVuSans-31" transform="translate(474.423828 -16.390625) scale(0.7)"/>
      <use xlink:href="#DejaVuSans-2c" transform="translate(521.694336 0.015625)"/>
      <use xlink:href="#DejaVuSans-20" transform="translate(553.481445 0.015625)"/>
      <use xlink:href="#DejaVuSans-Oblique-4c" transform="translate(585.268555 0.015625)"/>
      <use xlink:href="#DejaVuSans-30" transform="translate(640.981445 -16.390625) scale(0.7)"/>
      <use xlink:href="#DejaVuSans-2e" transform="translate(685.517578 -16.390625) scale(0.7)"/>
      <use xlink:href="#DejaVuSans-30" transform="translate(707.768555 -16.390625) scale(0.7)"/>
      <use xlink:href="#DejaVuSans-3b" transform="translate(752.304688 -16.390625) scale(0.7)"/>
      <use xlink:href="#DejaVuSans-33" transform="translate(789.526367 -16.390625) scale(0.7)"/>
      <use xlink:href="#DejaVuSans-7d" transform="translate(836.796875 0.015625)"/>
     </g>
    </g>
    <g id="patch_31">
     <path d="M 309.507391 445.718281 
L 879.828702 445.718281 
L 879.828702 397.318281 
L 309.507391 397.318281 
z
" style="fill: #ffffff; stroke: #e1e0d9; stroke-linejoin: miter"/>
    </g>
    <g id="text_30">
     <!-- $L_{1.0;1}$ $L_{1.0;1}$ -->
     <g transform="translate(366.539522 426.798281) scale(0.22 -0.22)">
      <use xlink:href="#DejaVuSans-Oblique-4c" transform="translate(0 0.09375)"/>
      <use xlink:href="#DejaVuSans-31" transform="translate(55.712891 -16.3125) scale(0.7)"/>
      <use xlink:href="#DejaVuSans-2e" transform="translate(100.249023 -16.3125) scale(0.7)"/>
      <use xlink:href="#DejaVuSans-30" transform="translate(122.5 -16.3125) scale(0.7)"/>
      <use xlink:href="#DejaVuSans-3b" transform="translate(167.036133 -16.3125) scale(0.7)"/>
      <use xlink:href="#DejaVuSans-31" transform="translate(204.257812 -16.3125) scale(0.7)"/>
      <use xlink:href="#DejaVuSans-20" transform="translate(251.52832 0.09375)"/>
      <use xlink:href="#DejaVuSans-Oblique-4c" transform="translate(283.31543 0.09375)"/>
      <use xlink:href="#DejaVuSans-31" transform="translate(339.02832 -16.3125) scale(0.7)"/>
      <use xlink:href="#DejaVuSans-2e" transform="translate(383.564453 -16.3125) scale(0.7)"/>
      <use xlink:href="#DejaVuSans-30" transform="translate(405.81543 -16.3125) scale(0.7)"/>
      <use xlink:href="#DejaVuSans-3b" transform="translate(450.351562 -16.3125) scale(0.7)"/>
      <use xlink:href="#DejaVuSans-31" transform="translate(487.573242 -16.3125) scale(0.7)"/>
     </g>
    </g>
    <g id="patch_32">
     <path d="M 879.828702 445.718281 
L 1047.160563 445.718281 
L 1047.160563 397.318281 
L 879.828702 397.318281 
z
" style="fill: #ffffff; stroke: #e1e0d9; stroke-linejoin: miter"/>
    </g>
    <g id="patch_33">
     <path d="M 1047.160563 445.718281 
L 1281.6 445.718281 
L 1281.6 397.318281 
L 1047.160563 397.318281 
z
" style="fill: #ffffff; stroke: #e1e0d9; stroke-linejoin: miter"/>
    </g>
    <g id="patch_34">
     <path d="M 7.2 494.118281 
L 309.507391 494.118281 
L 309.507391 445.718281 
L 7.2 445.718281 
z
" style="fill: #ffffff; stroke: #e1e0d9; stroke-linejoin: miter"/>
    </g>
    <g id="text_31">
     <!-- $y$ = {$R_{2.0;2}$, $R_{2.0;4}$} -->
     <g transform="translate(37.430739 475.528281) scale(0.22 -0.22)">
      <use xlink:href="#DejaVuSans-Oblique-79" transform="translate(0 0.015625)"/>
      <use xlink:href="#DejaVuSans-20" transform="translate(59.179688 0.015625)"/>
      <use xlink:href="#DejaVuSans-3d" transform="translate(90.966797 0.015625)"/>
      <use xlink:href="#DejaVuSans-20" transform="translate(174.755859 0.015625)"/>
      <use xlink:href="#DejaVuSans-7b" transform="translate(206.542969 0.015625)"/>
      <use xlink:href="#DejaVuSans-Oblique-52" transform="translate(270.166016 0.015625)"/>
      <use xlink:href="#DejaVuSans-32" transform="translate(339.648438 -16.390625) scale(0.7)"/>
      <use xlink:href="#DejaVuSans-2e" transform="translate(384.18457 -16.390625) scale(0.7)"/>
      <use xlink:href="#DejaVuSans-30" transform="translate(406.435547 -16.390625) scale(0.7)"/>
      <use xlink:href="#DejaVuSans-3b" transform="translate(450.97168 -16.390625) scale(0.7)"/>
      <use xlink:href="#DejaVuSans-32" transform="translate(488.193359 -16.390625) scale(0.7)"/>
      <use xlink:href="#DejaVuSans-2c" transform="translate(535.463867 0.015625)"/>
      <use xlink:href="#DejaVuSans-20" transform="translate(567.250977 0.015625)"/>
      <use xlink:href="#DejaVuSans-Oblique-52" transform="translate(599.038086 0.015625)"/>
      <use xlink:href="#DejaVuSans-32" transform="translate(668.520508 -16.390625) scale(0.7)"/>
      <use xlink:href="#DejaVuSans-2e" transform="translate(713.056641 -16.390625) scale(0.7)"/>
      <use xlink:href="#DejaVuSans-30" transform="translate(735.307617 -16.390625) scale(0.7)"/>
      <use xlink:href="#DejaVuSans-3b" transform="translate(779.84375 -16.390625) scale(0.7)"/>
      <use xlink:href="#DejaVuSans-34" transform="translate(817.06543 -16.390625) scale(0.7)"/>
      <use xlink:href="#DejaVuSans-7d" transform="translate(864.335938 0.015625)"/>
     </g>
    </g>
    <g id="patch_35">
     <path d="M 309.507391 494.118281 
L 879.828702 494.118281 
L 879.828702 445.718281 
L 309.507391 445.718281 
z
" style="fill: #ffffff; stroke: #e1e0d9; stroke-linejoin: miter"/>
    </g>
    <g id="text_32">
     <!-- $R_{0.0;2}$ $R_{0.0;4}$ -->
     <g transform="translate(366.539522 475.198281) scale(0.22 -0.22)">
      <use xlink:href="#DejaVuSans-Oblique-52" transform="translate(0 0.09375)"/>
      <use xlink:href="#DejaVuSans-30" transform="translate(69.482422 -16.3125) scale(0.7)"/>
      <use xlink:href="#DejaVuSans-2e" transform="translate(114.018555 -16.3125) scale(0.7)"/>
      <use xlink:href="#DejaVuSans-30" transform="translate(136.269531 -16.3125) scale(0.7)"/>
      <use xlink:href="#DejaVuSans-3b" transform="translate(180.805664 -16.3125) scale(0.7)"/>
      <use xlink:href="#DejaVuSans-32" transform="translate(218.027344 -16.3125) scale(0.7)"/>
      <use xlink:href="#DejaVuSans-20" transform="translate(265.297852 0.09375)"/>
      <use xlink:href="#DejaVuSans-Oblique-52" transform="translate(297.084961 0.09375)"/>
      <use xlink:href="#DejaVuSans-30" transform="translate(366.567383 -16.3125) scale(0.7)"/>
      <use xlink:href="#DejaVuSans-2e" transform="translate(411.103516 -16.3125) scale(0.7)"/>
      <use xlink:href="#DejaVuSans-30" transform="translate(433.354492 -16.3125) scale(0.7)"/>
      <use xlink:href="#DejaVuSans-3b" transform="translate(477.890625 -16.3125) scale(0.7)"/>
      <use xlink:href="#DejaVuSans-34" transform="translate(515.112305 -16.3125) scale(0.7)"/>
     </g>
    </g>
    <g id="patch_36">
     <path d="M 879.828702 494.118281 
L 1047.160563 494.118281 
L 1047.160563 445.718281 
L 879.828702 445.718281 
z
" style="fill: #ffffff; stroke: #e1e0d9; stroke-linejoin: miter"/>
    </g>
    <g id="text_33">
     <!-- $z$ -->
     <g transform="translate(896.561888 475.988906) scale(0.22 -0.22)">
      <defs>
       <path id="DejaVuSans-Oblique-7a" d="M 744 3500 
L 3475 3500 
L 3372 2975 
L 738 459 
L 2913 459 
L 2822 0 
L -19 0 
L 84 525 
L 2719 3041 
L 653 3041 
L 744 3500 
z
" transform="scale(0.015625)"/>
      </defs>
      <use xlink:href="#DejaVuSans-Oblique-7a" transform="translate(0 0.3125)"/>
     </g>
    </g>
    <g id="patch_37">
     <path d="M 1047.160563 494.118281 
L 1281.6 494.118281 
L 1281.6 445.718281 
L 1047.160563 445.718281 
z
" style="fill: #ffffff; stroke: #e1e0d9; stroke-linejoin: miter"/>
    </g>
    <g id="text_34">
     <!-- $z$ -->
     <g transform="translate(1070.604507 475.988906) scale(0.22 -0.22)">
      <use xlink:href="#DejaVuSans-Oblique-7a" transform="translate(0 0.3125)"/>
     </g>
    </g>
    <g id="patch_38">
     <path d="M 7.2 542.518281 
L 309.507391 542.518281 
L 309.507391 494.118281 
L 7.2 494.118281 
z
" style="fill: #ffffff; stroke: #e1e0d9; stroke-linejoin: miter"/>
    </g>
    <g id="text_35">
     <!-- $z$ = {$R_{0.0;2}$, $R_{0.0;4}$} -->
     <g transform="translate(37.430739 523.928281) scale(0.22 -0.22)">
      <use xlink:href="#DejaVuSans-Oblique-7a" transform="translate(0 0.015625)"/>
      <use xlink:href="#DejaVuSans-20" transform="translate(52.490234 0.015625)"/>
      <use xlink:href="#DejaVuSans-3d" transform="translate(84.277344 0.015625)"/>
      <use xlink:href="#DejaVuSans-20" transform="translate(168.066406 0.015625)"/>
      <use xlink:href="#DejaVuSans-7b" transform="translate(199.853516 0.015625)"/>
      <use xlink:href="#DejaVuSans-Oblique-52" transform="translate(263.476562 0.015625)"/>
      <use xlink:href="#DejaVuSans-30" transform="translate(332.958984 -16.390625) scale(0.7)"/>
      <use xlink:href="#DejaVuSans-2e" transform="translate(377.495117 -16.390625) scale(0.7)"/>
      <use xlink:href="#DejaVuSans-30" transform="translate(399.746094 -16.390625) scale(0.7)"/>
      <use xlink:href="#DejaVuSans-3b" transform="translate(444.282227 -16.390625) scale(0.7)"/>
      <use xlink:href="#DejaVuSans-32" transform="translate(481.503906 -16.390625) scale(0.7)"/>
      <use xlink:href="#DejaVuSans-2c" transform="translate(528.774414 0.015625)"/>
      <use xlink:href="#DejaVuSans-20" transform="translate(560.561523 0.015625)"/>
      <use xlink:href="#DejaVuSans-Oblique-52" transform="translate(592.348633 0.015625)"/>
      <use xlink:href="#DejaVuSans-30" transform="translate(661.831055 -16.390625) scale(0.7)"/>
      <use xlink:href="#DejaVuSans-2e" transform="translate(706.367188 -16.390625) scale(0.7)"/>
      <use xlink:href="#DejaVuSans-30" transform="translate(728.618164 -16.390625) scale(0.7)"/>
      <use xlink:href="#DejaVuSans-3b" transform="translate(773.154297 -16.390625) scale(0.7)"/>
      <use xlink:href="#DejaVuSans-34" transform="translate(810.375977 -16.390625) scale(0.7)"/>
      <use xlink:href="#DejaVuSans-7d" transform="translate(857.646484 0.015625)"/>
     </g>
    </g>
    <g id="patch_39">
     <path d="M 309.507391 542.518281 
L 879.828702 542.518281 
L 879.828702 494.118281 
L 309.507391 494.118281 
z
" style="fill: #ffffff; stroke: #e1e0d9; stroke-linejoin: miter"/>
    </g>
    <g id="text_36">
     <!-- $R_{1.0;2}$ $R_{1.0;2}$ -->
     <g transform="translate(366.539522 523.598281) scale(0.22 -0.22)">
      <use xlink:href="#DejaVuSans-Oblique-52" transform="translate(0 0.09375)"/>
      <use xlink:href="#DejaVuSans-31" transform="translate(69.482422 -16.3125) scale(0.7)"/>
      <use xlink:href="#DejaVuSans-2e" transform="translate(114.018555 -16.3125) scale(0.7)"/>
      <use xlink:href="#DejaVuSans-30" transform="translate(136.269531 -16.3125) scale(0.7)"/>
      <use xlink:href="#DejaVuSans-3b" transform="translate(180.805664 -16.3125) scale(0.7)"/>
      <use xlink:href="#DejaVuSans-32" transform="translate(218.027344 -16.3125) scale(0.7)"/>
      <use xlink:href="#DejaVuSans-20" transform="translate(265.297852 0.09375)"/>
      <use xlink:href="#DejaVuSans-Oblique-52" transform="translate(297.084961 0.09375)"/>
      <use xlink:href="#DejaVuSans-31" transform="translate(366.567383 -16.3125) scale(0.7)"/>
      <use xlink:href="#DejaVuSans-2e" transform="translate(411.103516 -16.3125) scale(0.7)"/>
      <use xlink:href="#DejaVuSans-30" transform="translate(433.354492 -16.3125) scale(0.7)"/>
      <use xlink:href="#DejaVuSans-3b" transform="translate(477.890625 -16.3125) scale(0.7)"/>
      <use xlink:href="#DejaVuSans-32" transform="translate(515.112305 -16.3125) scale(0.7)"/>
     </g>
    </g>
    <g id="patch_40">
     <path d="M 879.828702 542.518281 
L 1047.160563 542.518281 
L 1047.160563 494.118281 
L 879.828702 494.118281 
z
" style="fill: #ffffff; stroke: #e1e0d9; stroke-linejoin: miter"/>
    </g>
    <g id="patch_41">
     <path d="M 1047.160563 542.518281 
L 1281.6 542.518281 
L 1281.6 494.118281 
L 1047.160563 494.118281 
z
" style="fill: #ffffff; stroke: #e1e0d9; stroke-linejoin: miter"/>
    </g>
   </g>
   <g id="text_37">
    <!-- Hénon k=2, period 3, 5 blast(s) - - itineraries and words -->
    <g transform="translate(492.480547 15.998281) scale(0.11 -0.11)">
     <defs>
      <path id="DejaVuSans-48" d="M 628 4666 
L 1259 4666 
L 1259 2753 
L 3553 2753 
L 3553 4666 
L 4184 4666 
L 4184 0 
L 3553 0 
L 3553 2222 
L 1259 2222 
L 1259 0 
L 628 0 
L 628 4666 
z
" transform="scale(0.015625)"/>
      <path id="DejaVuSans-e9" d="M 3597 1894 
L 3597 1613 
L 953 1613 
Q 991 1019 1311 708 
Q 1631 397 2203 397 
Q 2534 397 2845 478 
Q 3156 559 3463 722 
L 3463 178 
Q 3153 47 2828 -22 
Q 2503 -91 2169 -91 
Q 1331 -91 842 396 
Q 353 884 353 1716 
Q 353 2575 817 3079 
Q 1281 3584 2069 3584 
Q 2775 3584 3186 3129 
Q 3597 2675 3597 1894 
z
M 3022 2063 
Q 3016 2534 2758 2815 
Q 2500 3097 2075 3097 
Q 1594 3097 1305 2825 
Q 1016 2553 972 2059 
L 3022 2063 
z
M 2466 5119 
L 3088 5119 
L 2070 3944 
L 1591 3944 
L 2466 5119 
z
" transform="scale(0.015625)"/>
      <path id="DejaVuSans-6e" d="M 3513 2113 
L 3513 0 
L 2938 0 
L 2938 2094 
Q 2938 2591 2744 2837 
Q 2550 3084 2163 3084 
Q 1697 3084 1428 2787 
Q 1159 2491 1159 1978 
L 1159 0 
L 581 0 
L 581 3500 
L 1159 3500 
L 1159 2956 
Q 1366 3272 1645 3428 
Q 1925 3584 2291 3584 
Q 2894 3584 3203 3211 
Q 3513 2838 3513 2113 
z
" transform="scale(0.015625)"/>
      <path id="DejaVuSans-6f" d="M 1959 3097 
Q 1497 3097 1228 2736 
Q 959 2375 959 1747 
Q 959 1119 1226 758 
Q 1494 397 1959 397 
Q 2419 397 2687 759 
Q 2956 1122 2956 1747 
Q 2956 2369 2687 2733 
Q 2419 3097 1959 3097 
z
M 1959 3584 
Q 2709 3584 3137 3096 
Q 3566 2609 3566 1747 
Q 3566 888 3137 398 
Q 2709 -91 1959 -91 
Q 1206 -91 779 398 
Q 353 888 353 1747 
Q 353 2609 779 3096 
Q 1206 3584 1959 3584 
z
" transform="scale(0.015625)"/>
      <path id="DejaVuSans-6b" d="M 581 4863 
L 1159 4863 
L 1159 1991 
L 2875 3500 
L 3609 3500 
L 1753 1863 
L 3688 0 
L 2938 0 
L 1159 1709 
L 1159 0 
L 581 0 
L 581 4863 
z
" transform="scale(0.015625)"/>
      <path id="DejaVuSans-70" d="M 1159 525 
L 1159 -1331 
L 581 -1331 
L 581 3500 
L 1159 3500 
L 1159 2969 
Q 1341 3281 1617 3432 
Q 1894 3584 2278 3584 
Q 2916 3584 3314 3078 
Q 3713 2572 3713 1747 
Q 3713 922 3314 415 
Q 2916 -91 2278 -91 
Q 1894 -91 1617 61 
Q 1341 213 1159 525 
z
M 3116 1747 
Q 3116 2381 2855 2742 
Q 2594 3103 2138 3103 
Q 1681 3103 1420 2742 
Q 1159 2381 1159 1747 
Q 1159 1113 1420 752 
Q 1681 391 2138 391 
Q 2594 391 2855 752 
Q 3116 1113 3116 1747 
z
" transform="scale(0.015625)"/>
      <path id="DejaVuSans-65" d="M 3597 1894 
L 3597 1613 
L 953 1613 
Q 991 1019 1311 708 
Q 1631 397 2203 397 
Q 2534 397 2845 478 
Q 3156 559 3463 722 
L 3463 178 
Q 3153 47 2828 -22 
Q 2503 -91 2169 -91 
Q 1331 -91 842 396 
Q 353 884 353 1716 
Q 353 2575 817 3079 
Q 1281 3584 2069 3584 
Q 2775 3584 3186 3129 
Q 3597 2675 3597 1894 
z
M 3022 2063 
Q 3016 2534 2758 2815 
Q 2500 3097 2075 3097 
Q 1594 3097 1305 2825 
Q 1016 2553 972 2059 
L 3022 2063 
z
" transform="scale(0.015625)"/>
      <path id="DejaVuSans-72" d="M 2631 2963 
Q 2534 3019 2420 3045 
Q 2306 3072 2169 3072 
Q 1681 3072 1420 2755 
Q 1159 2438 1159 1844 
L 1159 0 
L 581 0 
L 581 3500 
L 1159 3500 
L 1159 2956 
Q 1341 3275 1631 3429 
Q 1922 3584 2338 3584 
Q 2397 3584 2469 3576 
Q 2541 3569 2628 3553 
L 2631 2963 
z
" transform="scale(0.015625)"/>
      <path id="DejaVuSans-69" d="M 603 3500 
L 1178 3500 
L 1178 0 
L 603 0 
L 603 3500 
z
M 603 4863 
L 1178 4863 
L 1178 4134 
L 603 4134 
L 603 4863 
z
" transform="scale(0.015625)"/>
      <path id="DejaVuSans-64" d="M 2906 2969 
L 2906 4863 
L 3481 4863 
L 3481 0 
L 2906 0 
L 2906 525 
Q 2725 213 2448 61 
Q 2172 -91 1784 -91 
Q 1150 -91 751 415 
Q 353 922 353 1747 
Q 353 2572 751 3078 
Q 1150 3584 1784 3584 
Q 2172 3584 2448 3432 
Q 2725 3281 2906 2969 
z
M 947 1747 
Q 947 1113 1208 752 
Q 1469 391 1925 391 
Q 2381 391 2643 752 
Q 2906 1113 2906 1747 
Q 2906 2381 2643 2742 
Q 2381 3103 1925 3103 
Q 1469 3103 1208 2742 
Q 947 2381 947 1747 
z
" transform="scale(0.015625)"/>
      <path id="DejaVuSans-62" d="M 3116 1747 
Q 3116 2381 2855 2742 
Q 2594 3103 2138 3103 
Q 1681 3103 1420 2742 
Q 1159 2381 1159 1747 
Q 1159 1113 1420 752 
Q 1681 391 2138 391 
Q 2594 391 2855 752 
Q 3116 1113 3116 1747 
z
M 1159 2969 
Q 1341 3281 1617 3432 
Q 1894 3584 2278 3584 
Q 2916 3584 3314 3078 
Q 3713 2572 3713 1747 
Q 3713 922 3314 415 
Q 2916 -91 2278 -91 
Q 1894 -91 1617 61 
Q 1341 213 1159 525 
L 1159 0 
L 581 0 
L 581 4863 
L 1159 4863 
L 1159 2969 
z
" transform="scale(0.015625)"/>
      <path id="DejaVuSans-6c" d="M 603 4863 
L 1178 4863 
L 1178 0 
L 603 0 
L 603 4863 
z
" transform="scale(0.015625)"/>
      <path id="DejaVuSans-61" d="M 2194 1759 
Q 1497 1759 1228 1600 
Q 959 1441 959 1056 
Q 959 750 1161 570 
Q 1363 391 1709 391 
Q 2188 391 2477 730 
Q 2766 1069 2766 1631 
L 2766 1759 
L 2194 1759 
z
M 3341 1997 
L 3341 0 
L 2766 0 
L 2766 531 
Q 2569 213 2275 61 
Q 1981 -91 1556 -91 
Q 1019 -91 701 211 
Q 384 513 384 1019 
Q 384 1609 779 1909 
Q 1175 2209 1959 2209 
L 2766 2209 
L 2766 2266 
Q 2766 2663 2505 2880 
Q 2244 3097 1772 3097 
Q 1472 3097 1187 3025 
Q 903 2953 641 2809 
L 641 3341 
Q 956 3463 1253 3523 
Q 1550 3584 1831 3584 
Q 2591 3584 2966 3190 
Q 3341 2797 3341 1997 
z
" transform="scale(0.015625)"/>
      <path id="DejaVuSans-73" d="M 2834 3397 
L 2834 2853 
Q 2591 2978 2328 3040 
Q 2066 3103 1784 3103 
Q 1356 3103 1142 2972 
Q 928 2841 928 2578 
Q 928 2378 1081 2264 
Q 1234 2150 1697 2047 
L 1894 2003 
Q 2506 1872 2764 1633 
Q 3022 1394 3022 966 
Q 3022 478 2636 193 
Q 2250 -91 1575 -91 
Q 1294 -91 989 -36 
Q 684 19 347 128 
L 347 722 
Q 666 556 975 473 
Q 1284 391 1588 391 
Q 1994 391 2212 530 
Q 2431 669 2431 922 
Q 2431 1156 2273 1281 
Q 2116 1406 1581 1522 
L 1381 1569 
Q 847 1681 609 1914 
Q 372 2147 372 2553 
Q 372 3047 722 3315 
Q 1072 3584 1716 3584 
Q 2034 3584 2315 3537 
Q 2597 3491 2834 3397 
z
" transform="scale(0.015625)"/>
      <path id="DejaVuSans-74" d="M 1172 4494 
L 1172 3500 
L 2356 3500 
L 2356 3053 
L 1172 3053 
L 1172 1153 
Q 1172 725 1289 603 
Q 1406 481 1766 481 
L 2356 481 
L 2356 0 
L 1766 0 
Q 1100 0 847 248 
Q 594 497 594 1153 
L 594 3053 
L 172 3053 
L 172 3500 
L 594 3500 
L 594 4494 
L 1172 4494 
z
" transform="scale(0.015625)"/>
      <path id="DejaVuSans-28" d="M 1984 4856 
Q 1566 4138 1362 3434 
Q 1159 2731 1159 2009 
Q 1159 1288 1364 580 
Q 1569 -128 1984 -844 
L 1484 -844 
Q 1016 -109 783 600 
Q 550 1309 550 2009 
Q 550 2706 781 3412 
Q 1013 4119 1484 4856 
L 1984 4856 
z
" transform="scale(0.015625)"/>
      <path id="DejaVuSans-29" d="M 513 4856 
L 1013 4856 
Q 1481 4119 1714 3412 
Q 1947 2706 1947 2009 
Q 1947 1309 1714 600 
Q 1481 -109 1013 -844 
L 513 -844 
Q 928 -128 1133 580 
Q 1338 1288 1338 2009 
Q 1338 2731 1133 3434 
Q 928 4138 513 4856 
z
" transform="scale(0.015625)"/>
      <path id="DejaVuSans-2d" d="M 313 2009 
L 1997 2009 
L 1997 1497 
L 313 1497 
L 313 2009 
z
" transform="scale(0.015625)"/>
      <path id="DejaVuSans-77" d="M 269 3500 
L 844 3500 
L 1563 769 
L 2278 3500 
L 2956 3500 
L 3675 769 
L 4391 3500 
L 4966 3500 
L 4050 0 
L 3372 0 
L 2619 2869 
L 1863 0 
L 1184 0 
L 269 3500 
z
" transform="scale(0.015625)"/>
     </defs>
     <use xlink:href="#DejaVuSans-48"/>
     <use xlink:href="#DejaVuSans-e9" transform="translate(75.195312 0)"/>
     <use xlink:href="#DejaVuSans-6e" transform="translate(136.71875 0)"/>
     <use xlink:href="#DejaVuSans-6f" transform="translate(200.097656 0)"/>
     <use xlink:href="#DejaVuSans-6e" transform="translate(261.279297 0)"/>
     <use xlink:href="#DejaVuSans-20" transform="translate(324.658203 0)"/>
     <use xlink:href="#DejaVuSans-6b" transform="translate(356.445312 0)"/>
     <use xlink:href="#DejaVuSans-3d" transform="translate(414.355469 0)"/>
     <use xlink:href="#DejaVuSans-32" transform="translate(498.144531 0)"/>
     <use xlink:href="#DejaVuSans-2c" transform="translate(561.767578 0)"/>
     <use xlink:href="#DejaVuSans-20" transform="translate(593.554688 0)"/>
     <use xlink:href="#DejaVuSans-70" transform="translate(625.341797 0)"/>
     <use xlink:href="#DejaVuSans-65" transform="translate(688.818359 0)"/>
     <use xlink:href="#DejaVuSans-72" transform="translate(750.341797 0)"/>
     <use xlink:href="#DejaVuSans-69" transform="translate(791.455078 0)"/>
     <use xlink:href="#DejaVuSans-6f" transform="translate(819.238281 0)"/>
     <use xlink:href="#DejaVuSans-64" transform="translate(880.419922 0)"/>
     <use xlink:href="#DejaVuSans-20" transform="translate(943.896484 0)"/>
     <use xlink:href="#DejaVuSans-33" transform="translate(975.683594 0)"/>
     <use xlink:href="#DejaVuSans-2c" transform="translate(1039.306641 0)"/>
     <use xlink:href="#DejaVuSans-20" transform="translate(1071.09375 0)"/>
     <use xlink:href="#DejaVuSans-35" transform="translate(1102.880859 0)"/>
     <use xlink:href="#DejaVuSans-20" transform="translate(1166.503906 0)"/>
     <use xlink:href="#DejaVuSans-62" transform="translate(1198.291016 0)"/>
     <use xlink:href="#DejaVuSans-6c" transform="translate(1261.767578 0)"/>
     <use xlink:href="#DejaVuSans-61" transform="translate(1289.550781 0)"/>
     <use xlink:href="#DejaVuSans-73" transform="translate(1350.830078 0)"/>
     <use xlink:href="#DejaVuSans-74" transform="translate(1402.929688 0)"/>
     <use xlink:href="#DejaVuSans-28" transform="translate(1442.138672 0)"/>
     <use xlink:href="#DejaVuSans-73" transform="translate(1481.152344 0)"/>
     <use xlink:href="#DejaVuSans-29" transform="translate(1533.251953 0)"/>
     <use xlink:href="#DejaVuSans-20" transform="translate(1572.265625 0)"/>
     <use xlink:href="#DejaVuSans-2d" transform="translate(1604.052734 0)"/>
     <use xlink:href="#DejaVuSans-2d" transform="translate(1640.136719 0)"/>
     <use xlink:href="#DejaVuSans-20" transform="translate(1676.220703 0)"/>
     <use xlink:href="#DejaVuSans-69" transform="translate(1708.007812 0)"/>
     <use xlink:href="#DejaVuSans-74" transform="translate(1735.791016 0)"/>
     <use xlink:href="#DejaVuSans-69" transform="translate(1775 0)"/>
     <use xlink:href="#DejaVuSans-6e" transform="translate(1802.783203 0)"/>
     <use xlink:href="#DejaVuSans-65" transform="translate(1866.162109 0)"/>
     <use xlink:href="#DejaVuSans-72" transform="translate(1927.685547 0)"/>
     <use xlink:href="#DejaVuSans-61" transform="translate(1968.798828 0)"/>
     <use xlink:href="#DejaVuSans-72" transform="translate(2030.078125 0)"/>
     <use xlink:href="#DejaVuSans-69" transform="translate(2071.191406 0)"/>
     <use xlink:href="#DejaVuSans-65" transform="translate(2098.974609 0)"/>
     <use xlink:href="#DejaVuSans-73" transform="translate(2160.498047 0)"/>
     <use xlink:href="#DejaVuSans-20" transform="translate(2212.597656 0)"/>
     <use xlink:href="#DejaVuSans-61" transform="translate(2244.384766 0)"/>
     <use xlink:href="#DejaVuSans-6e" transform="translate(2305.664062 0)"/>
     <use xlink:href="#DejaVuSans-64" transform="translate(2369.042969 0)"/>
     <use xlink:href="#DejaVuSans-20" transform="translate(2432.519531 0)"/>
     <use xlink:href="#DejaVuSans-77" transform="translate(2464.306641 0)"/>
     <use xlink:href="#DejaVuSans-6f" transform="translate(2546.09375 0)"/>
     <use xlink:href="#DejaVuSans-72" transform="translate(2607.275391 0)"/>
     <use xlink:href="#DejaVuSans-64" transform="translate(2646.638672 0)"/>
     <use xlink:href="#DejaVuSans-73" transform="translate(2710.115234 0)"/>
    </g>
   </g>
  </g>
 </g>
</svg>
